<svg width="120" height="139" viewBox="0 0 120 139" fill="none" xmlns="http://www.w3.org/2000/svg">
<path d="M44.324 0C43.2939 0 42.3364 0.536897 41.7953 1.41872C41.2542 2.30055 41.2039 3.39957 41.6647 4.32623L44.324 9.67419V38.0078C42.3768 39.4038 39.3488 41.3229 36.8917 42.8011V12.6634L39.5511 7.31548C40.0119 6.38882 39.963 5.28688 39.4204 4.40505C38.8794 3.52472 37.9218 2.98925 36.8917 2.98925H16.0811C15.051 2.98925 14.0935 3.52614 13.5524 4.40797C13.0113 5.2898 12.961 6.38882 13.4218 7.31548L16.0811 12.6634V43.6418C14.3464 42.9035 12.45 42.0912 10.9917 41.3036C11.1478 41.1765 11.3046 41.0481 11.4592 40.9241C12.1355 40.3756 12.7725 39.8577 13.2824 39.3973C13.9989 38.7517 14.7907 37.6471 14.5424 36.0374C14.4755 35.2452 14.0981 34.5081 13.4856 33.9939C12.9475 33.5411 12.2723 33.2992 11.5811 33.2992C11.4042 33.2992 11.2267 33.3145 11.0498 33.3459C8.47821 33.8152 6.50859 34.602 4.42457 35.436C3.65012 35.7454 2.84125 36.0707 1.9568 36.3935C0.781 36.8225 0 37.9448 0 39.2018V39.5024C0 39.6878 0.0166529 39.8718 0.0493554 40.0542C1.27272 46.5976 5.3685 49.2018 6.71524 50.0582C9.04602 51.5409 13.1122 53.9385 16.2873 55.4675L16.0899 75.5048L13.4247 80.8673C12.9639 81.794 13.0128 82.893 13.5553 83.7748C14.0949 84.6567 15.051 85.1935 16.0811 85.1935H36.8917C37.9218 85.1935 38.8794 84.6567 39.4204 83.7748C39.9615 82.893 40.0119 81.794 39.5511 80.8673L36.8917 75.5194V56.0659C39.2924 55.2498 41.9219 53.9862 44.324 52.6067V81.6175L41.6763 86.8225C41.2051 87.7491 41.247 88.8538 41.7866 89.7416C42.3277 90.6309 43.2895 91.172 44.324 91.172H65.1346C66.1647 91.172 67.1223 90.6351 67.6633 89.7533C68.2044 88.8715 68.2548 87.7725 67.794 86.8458L65.1346 81.4979V41.5429C70.0043 39.6956 72.4695 39.3477 75.1392 39.2864L76.498 59.5105L76.1554 59.1661C75.5846 58.5936 74.822 58.2903 74.0505 58.2903C73.5986 58.2903 73.1459 58.3934 72.7237 58.6056C71.5791 59.181 70.9282 60.4279 71.1095 61.7029L74.4512 85.2198C74.3189 85.2019 74.1843 85.1935 74.0505 85.1935C73.5778 85.1935 73.1027 85.3063 72.6657 85.538C71.5122 86.1493 70.8905 87.4462 71.1298 88.7345L80.0486 136.562C80.3132 137.981 81.5453 139 82.9693 139C83.0124 139 83.0569 138.999 83.1 138.997C84.5775 138.933 85.7835 137.788 85.9306 136.309L88.2794 112.692L88.3026 112.716C88.8719 113.287 89.6345 113.591 90.4075 113.591C90.8177 113.591 91.2287 113.506 91.6181 113.332C92.7434 112.826 93.443 111.673 93.3746 110.436L92.3178 91.3443L92.7649 91.7909C93.3328 92.3634 94.0925 92.6667 94.864 92.6667C95.2787 92.6667 95.6981 92.5775 96.0921 92.3981C97.2203 91.884 97.91 90.7195 97.8282 89.476L96.8817 75.2391C97.185 75.55 97.4667 75.8511 97.715 76.1441C97.7507 76.1859 97.7852 76.2249 97.8224 76.2638C98.6518 77.1426 99.8964 77.6679 101.15 77.6679C101.417 77.6679 101.683 77.6427 101.945 77.5949C104.16 77.2048 107.816 76.3028 109.644 75.6945C112.649 74.7843 114.666 74.0344 117.242 71.4442C117.638 71.0466 117.913 70.5462 118.038 69.9992C118.595 67.5525 118.641 67.2617 118.656 67.1676C119.316 62.9318 119.589 54.6241 119.809 47.9506C119.873 45.9956 119.934 44.1703 119.997 42.6114C120.027 41.885 119.793 41.1738 119.338 40.6088C116.386 36.944 110.69 28.2314 108.817 25.3677L108.707 25.1984C107.581 23.4676 105.683 22.431 103.635 22.431C103.04 22.431 102.449 22.5204 101.875 22.6938C100.316 23.1601 98.2709 23.7748 96.3533 24.3577V22.4194C96.3533 20.7678 95.023 19.4301 93.3804 19.4301H77.0264C76.2043 19.4301 75.4195 19.7736 74.8576 20.3759C74.2957 20.9783 74.0072 21.787 74.0592 22.612L74.4308 28.392C71.3806 28.6551 67.7746 29.3406 65.1346 29.9071V9.64499L67.6837 4.27661C68.1237 3.34994 68.0593 2.26375 67.5153 1.39537C66.9697 0.526995 66.0223 0 65.0011 0H44.324ZM46.1096 2.98925H63.0385L54.0122 8.09491L46.1096 2.98925ZM64.6062 3.8183L62.1617 8.96774V33.6582C62.1617 33.6582 71.6093 31.2703 76.7302 31.2703C77.0349 31.2703 77.3263 31.2787 77.5983 31.2966L77.0757 23.2075L84.4703 28.7803L85.0016 45.6211C85.0078 45.8193 85.092 46.0069 85.2357 46.1426C85.3795 46.2784 85.5709 46.3512 85.7681 46.345C85.9652 46.3388 86.1518 46.2541 86.2868 46.1096C86.4218 45.9651 86.4942 45.7725 86.4881 45.5743L85.9568 28.7627L93.3775 23.1667V28.3978C95.8748 27.6206 100.125 26.3347 102.726 25.5575C103.028 25.4663 103.334 25.4232 103.635 25.4232C104.663 25.4232 105.634 25.9421 106.222 26.8448C108.02 29.5949 113.921 38.6356 117.027 42.4917C116.745 49.367 116.536 61.4602 115.718 66.7063C115.673 66.9903 115.14 69.3365 115.14 69.3365C113.104 71.3842 111.661 71.9665 108.747 72.8483C107.008 73.4312 103.456 74.2966 101.42 74.6553C101.329 74.6717 101.239 74.6816 101.15 74.6816C100.666 74.6816 100.216 74.4612 99.9766 74.2086C98.1929 72.1012 95.414 70.0054 93.3775 67.3748L94.864 89.6774L88.9181 83.6989L90.4046 110.602L85.9452 106.118L83.4193 131.53L81.599 99.8158L84.6764 102.91C84.7846 103.019 84.9235 103.092 85.0742 103.118C85.2249 103.145 85.3801 103.124 85.5185 103.058C85.657 102.993 85.772 102.886 85.8478 102.752C85.9236 102.619 85.9566 102.465 85.9423 102.312L83.1638 72.9913L86.1629 76.0069C86.2682 76.1129 86.4028 76.1846 86.5492 76.2127C86.6956 76.2408 86.847 76.224 86.9838 76.1645C87.1205 76.1051 87.2364 76.0056 87.3162 75.8791C87.3961 75.7526 87.4363 75.6049 87.4316 75.4551L87.1471 66.4845C87.1453 66.3846 87.1235 66.286 87.0831 66.1947C87.0428 66.1034 86.9846 66.0211 86.912 65.9528C86.8395 65.8845 86.7541 65.8315 86.6608 65.797C86.5675 65.7624 86.4683 65.7471 86.369 65.7518C86.1724 65.7609 85.9873 65.8481 85.8545 65.9942C85.7217 66.1403 85.652 66.3334 85.6606 66.5312L85.8842 73.6131L82.7545 70.4663C82.6463 70.3574 82.5074 70.2848 82.3567 70.2583C82.206 70.2318 82.0509 70.2527 81.9124 70.3182C81.774 70.3836 81.659 70.4905 81.5831 70.6241C81.5073 70.7577 81.4743 70.9115 81.4887 71.0647L84.2671 100.385L81.268 97.3695C81.1615 97.2619 81.025 97.1895 80.8765 97.1619C80.7281 97.1343 80.5748 97.1527 80.4371 97.2149C80.2993 97.277 80.1837 97.3798 80.1055 97.5096C80.0273 97.6394 79.9902 97.7901 79.9993 97.9416L81.8342 129.901L74.0534 88.1828L78.5128 92.6667L74.0534 61.2796L79.9993 67.2581L77.9177 36.2884C77.4167 36.2884 76.94 36.2855 76.4747 36.2855C72.6382 36.2855 69.6847 36.4504 62.1617 39.5024V82.2043L64.7659 87.4442L54.7293 81.7664V9.40562L64.6062 3.8183ZM44.777 3.90295L53.2429 9.37351V81.7985L44.7944 87.2603L47.297 82.3386V47.1098C43.8038 49.7404 37.9917 52.9246 33.9188 53.8065V76.2258L36.523 81.4657L26.4864 75.7879V48.5753C26.488 48.4752 26.4695 48.3758 26.4321 48.283C26.3948 48.1902 26.3392 48.1059 26.2688 48.0351C26.1984 47.9643 26.1146 47.9085 26.0223 47.8709C25.93 47.8333 25.8311 47.8147 25.7316 47.8163C25.634 47.8178 25.5376 47.8387 25.448 47.8776C25.3584 47.9166 25.2774 47.9729 25.2094 48.0434C25.1415 48.1139 25.088 48.1971 25.0521 48.2884C25.0161 48.3797 24.9984 48.4771 25 48.5753V75.82L16.5341 81.2906L19.0541 76.2258L19.2776 53.5379C16.379 52.3721 11.2034 49.3775 8.30332 47.5331C6.66375 46.4899 3.88718 44.4048 2.97003 39.5024V39.2047C6.16594 38.0389 8.38229 36.8713 11.5782 36.2884C11.5782 36.5724 11.7752 36.7381 11.2966 37.17C10.4538 37.9293 9.05654 38.9998 7.94912 39.9549C6.97846 40.7919 7.05483 42.3229 8.1117 43.0463C8.23657 43.1315 8.36136 43.2151 8.48623 43.3003C10.82 44.765 14.6234 46.2301 17.2395 47.3959C17.8341 47.6948 19.0541 47.828 19.0541 47.828V11.957L16.5341 6.8922L25 12.3628V26.0917C24.9986 26.1907 25.0168 26.289 25.0535 26.3809C25.0902 26.4728 25.1447 26.5565 25.2139 26.627C25.283 26.6975 25.3655 26.7535 25.4563 26.7917C25.5472 26.83 25.6447 26.8496 25.7432 26.8496C25.8417 26.8496 25.9392 26.83 26.0301 26.7917C26.1209 26.7535 26.2033 26.6975 26.2725 26.627C26.3416 26.5565 26.3962 26.4728 26.4329 26.3809C26.4696 26.289 26.4878 26.1907 26.4864 26.0917V12.3949L36.523 6.71705L33.9188 11.957V47.828C35.0782 47.529 44.3835 41.849 47.297 39.5024V8.96774L44.777 3.90295ZM17.8667 5.97849H34.7956L25.7693 11.0842L17.8667 5.97849ZM78.5157 22.4194H91.8881L85.2019 27.4637L78.5157 22.4194ZM25.7316 29.9158C25.535 29.9189 25.3476 30.0002 25.2105 30.1419C25.0733 30.2836 24.9977 30.4742 25 30.6719V38.0808C24.9986 38.1798 25.0168 38.2781 25.0535 38.37C25.0902 38.4619 25.1447 38.5456 25.2139 38.6161C25.283 38.6866 25.3655 38.7426 25.4563 38.7808C25.5472 38.8191 25.6447 38.8387 25.7432 38.8387C25.8417 38.8387 25.9392 38.8191 26.0301 38.7808C26.1209 38.7426 26.2033 38.6866 26.2725 38.6161C26.3416 38.5456 26.3962 38.4619 26.4329 38.37C26.4696 38.2781 26.4878 38.1798 26.4864 38.0808V30.6719C26.4876 30.572 26.4688 30.473 26.4313 30.3805C26.3937 30.2881 26.3381 30.2041 26.2678 30.1336C26.1974 30.0631 26.1137 30.0076 26.0216 29.9701C25.9295 29.9327 25.8309 29.9143 25.7316 29.9158ZM101.768 31.4834C101.768 31.4834 95.9923 32.2958 93.3746 32.8817V63.4252C94.5385 64.8869 98.4659 67.3962 100.865 68.6622C100.892 68.713 100.926 68.7352 100.97 68.7352C100.991 68.7352 101.025 68.7049 101.051 68.6943L101.057 68.7118C101.057 68.7118 102.997 68.0498 105.014 67.1442C106.022 66.6914 107.05 66.1801 107.894 65.6379C108.737 65.0958 109.46 64.6034 109.703 63.72C109.946 62.8339 110.114 61.2079 110.292 59.0989C110.469 56.99 110.631 54.4594 110.768 52.0199C111.041 47.1409 111.215 42.626 111.215 42.626C111.223 42.4425 111.163 42.2628 111.047 42.1209L102.839 32.0965C102.796 31.9836 102.739 31.8792 102.639 31.7783C102.587 31.7259 102.534 31.6939 102.482 31.6586C102.243 31.4963 102.007 31.4834 101.768 31.4834ZM100.261 34.7266C101.311 39.9728 101.994 45.1799 101.994 52.668C101.994 54.5079 100.871 60.883 100.104 64.7884C98.5837 63.8558 97.1769 62.8692 96.3504 62.1787V35.3514C97.6734 35.1212 99.1329 34.8955 100.261 34.7266ZM103.333 35.0507L109.714 42.8507C109.704 43.1113 109.549 47.2193 109.284 51.9353C109.148 54.3667 108.987 56.8888 108.811 58.9734C108.636 61.058 108.421 62.7683 108.268 63.323C108.255 63.3708 107.829 63.9037 107.093 64.3768C106.356 64.85 105.377 65.3426 104.407 65.778C103.754 66.0714 103.199 66.2839 102.627 66.5108C102.804 66.1762 102.932 65.9052 102.932 65.8306C102.932 65.8306 104.967 55.5944 104.967 52.6709C104.967 45.2712 104.281 39.988 103.333 35.0507ZM85.8494 49.3138C85.6532 49.3237 85.4689 49.4112 85.3367 49.5572C85.2045 49.7033 85.1352 49.896 85.1439 50.0932L85.2397 53.1263C85.2429 53.2244 85.2653 53.321 85.3057 53.4104C85.346 53.4998 85.4035 53.5804 85.4748 53.6474C85.5461 53.7145 85.6299 53.7668 85.7213 53.8014C85.8127 53.8359 85.91 53.852 86.0076 53.8488C86.1052 53.8455 86.2012 53.823 86.2901 53.7824C86.3791 53.7418 86.4592 53.6841 86.5259 53.6124C86.5926 53.5407 86.6447 53.4564 86.679 53.3645C86.7134 53.2726 86.7294 53.1748 86.7261 53.0767L86.6274 50.0465C86.6256 49.9466 86.6038 49.8481 86.5635 49.7568C86.5231 49.6655 86.4649 49.5832 86.3924 49.5149C86.3198 49.4466 86.2344 49.3936 86.1411 49.359C86.0478 49.3245 85.9486 49.3091 85.8494 49.3138ZM86.0787 56.5359C85.8821 56.545 85.697 56.6322 85.5642 56.7783C85.4314 56.9244 85.3617 57.1176 85.3703 57.3153L85.5155 61.8955C85.5216 62.0937 85.6059 62.2813 85.7496 62.4171C85.8933 62.5529 86.0848 62.6257 86.2819 62.6195C86.4791 62.6133 86.6657 62.5286 86.8007 62.3841C86.9357 62.2395 87.0081 62.047 87.002 61.8488L86.8568 57.2686C86.8549 57.1687 86.8332 57.0702 86.7928 56.9788C86.7524 56.8875 86.6943 56.8053 86.6217 56.737C86.5492 56.6686 86.4637 56.6156 86.3705 56.5811C86.2772 56.5466 86.178 56.5312 86.0787 56.5359ZM25.7693 77.0986L34.7956 82.2043H17.8667L25.7693 77.0986ZM54.0122 83.0771L63.0385 88.1828H46.1096L54.0122 83.0771Z" fill="black"/>
</svg>
