<svg width="97" height="91" viewBox="0 0 97 91" fill="none" xmlns="http://www.w3.org/2000/svg">
<path fill-rule="evenodd" clip-rule="evenodd" d="M31.0107 18.9482C27.2583 18.9482 24.1714 21.8021 24.1714 25.2713C24.1714 28.7351 27.2583 31.5844 31.0107 31.5844C34.7692 31.5844 37.8606 28.7351 37.8606 25.2713C37.8606 21.8021 34.7692 18.9482 31.0107 18.9482ZM31.0107 22.8153C32.5105 22.8153 33.6715 23.8871 33.6715 25.2713C33.6715 26.6417 32.5105 27.7174 31.0107 27.7174C29.5261 27.7174 28.3605 26.6417 28.3605 25.2713C28.3605 23.8871 29.5261 22.8153 31.0107 22.8153Z" fill="black"/>
<path d="M73.7017 84.8124C61.8064 90.0738 48.5083 91.0395 35.7226 89.3609C32.9978 89.0453 30.3022 88.49 27.6636 87.7005C13.3062 83.1673 3.29177 68.0321 1.28775 52.2388C0.786739 48.2783 0.715167 44.2295 1.46524 40.3177C1.98473 37.8151 2.71682 35.3678 3.65249 33.0061C8.12433 21.1703 15.3903 9.85239 26.2178 4.36863C35.7484 -0.475361 46.7934 -0.249918 57.326 0.575693C60.2146 0.804184 63.1176 1.06923 65.9318 1.79431C69.6536 2.76615 73.1606 4.53619 76.3785 6.75711C90.0202 16.1374 98.1365 33.9017 96.6564 51.1116C95.6801 62.4173 90.5498 73.5402 81.861 80.1268C79.3143 82.0116 76.5763 83.5854 73.6989 84.8185L73.7017 84.8124ZM39.3155 85.443C49.1095 86.555 59.247 86.0249 68.4197 82.2076C77.5924 78.3903 85.7173 70.9872 89.273 61.2139C90.2362 58.508 90.8973 55.6909 91.2427 52.8207C92.9804 39.1387 88.3798 24.7073 79.1584 14.9858C75.7859 11.4275 71.7836 8.44794 67.2659 6.89116C64.2227 5.84315 61.0162 5.45624 57.8184 5.26126C47.5148 4.64583 37.1905 5.98691 27.3286 9.22176C25.5507 9.80669 24.0477 11.0741 22.6592 12.3932C12.6563 21.8801 6.11458 35.9125 6.77877 50.152C7.44296 64.3915 16.0145 78.3263 28.6369 83.1094C32.0724 84.4102 35.6911 85.0439 39.3155 85.4552V85.443Z" fill="black"/>
<path fill-rule="evenodd" clip-rule="evenodd" d="M65.6038 18.5915C61.9059 18.5915 58.8643 21.6334 58.8643 25.3313C58.8643 29.0232 61.9059 32.0604 65.6038 32.0604C69.2957 32.0604 72.3329 29.0233 72.3329 25.3313C72.3329 21.6334 69.2957 18.5915 65.6038 18.5915ZM65.6038 22.7134C67.0645 22.7134 68.2113 23.8558 68.2113 25.3313C68.2113 26.792 67.0645 27.9385 65.6038 27.9385C64.1283 27.9385 62.9858 26.792 62.9858 25.3313C62.9858 23.8558 64.1283 22.7134 65.6038 22.7134Z" fill="black"/>
<path fill-rule="evenodd" clip-rule="evenodd" d="M26.1339 49.4665C25.8452 49.4665 25.5598 49.5272 25.296 49.6446C25.0323 49.762 24.7962 49.9334 24.603 50.1479C24.4097 50.3623 24.2637 50.6149 24.1743 50.8894C24.0849 51.1639 24.0542 51.454 24.0841 51.7411C25.2389 62.8162 35.7695 71.2107 48.2804 71.2107C60.8007 71.2107 71.332 62.8162 72.4868 51.7411C72.5168 51.454 72.486 51.1639 72.3967 50.8894C72.3073 50.6149 72.1612 50.3623 71.968 50.1479C71.7747 49.9334 71.5386 49.762 71.2749 49.6446C71.0112 49.5272 70.7257 49.4665 70.4371 49.4665H26.1339ZM28.6027 53.5883H67.9682C65.9498 61.2073 58.0181 67.0889 48.2804 67.0889C38.5526 67.0889 30.6212 61.2073 28.6027 53.5883Z" fill="black"/>
</svg>
