<svg width="68" height="68" viewBox="0 0 68 68" fill="none" xmlns="http://www.w3.org/2000/svg">
<g opacity="0.2" filter="url(#filter0_d_12_29)">
<path d="M34 3.66625e-09C31.4345 -6.94222e-05 28.9672 0.985874 27.1082 2.75391C25.2493 4.52195 24.141 6.93682 24.0126 9.49906C23.8841 12.0613 24.7454 14.5749 26.4182 16.52C28.091 18.4651 30.4474 19.6928 33 19.9493V59C33 59.2652 33.1053 59.5196 33.2929 59.7071C33.4804 59.8946 33.7348 60 34 60C34.2652 60 34.5195 59.8946 34.7071 59.7071C34.8946 59.5196 35 59.2652 35 59V19.9493C37.5526 19.6928 39.909 18.4651 41.5818 16.52C43.2546 14.5749 44.1158 12.0613 43.9874 9.49906C43.859 6.93682 42.7507 4.52195 40.8917 2.75391C39.0328 0.985874 36.5654 -6.94222e-05 34 3.66625e-09ZM34 18C32.4177 18 30.871 17.5308 29.5554 16.6518C28.2398 15.7727 27.2144 14.5233 26.6089 13.0615C26.0034 11.5997 25.845 9.99113 26.1537 8.43928C26.4624 6.88743 27.2243 5.46197 28.3431 4.34315C29.4619 3.22433 30.8874 2.4624 32.4392 2.15372C33.9911 1.84504 35.5996 2.00346 37.0614 2.60896C38.5232 3.21446 39.7727 4.23984 40.6517 5.55544C41.5308 6.87103 42 8.41775 42 10C41.9975 12.121 41.1539 14.1544 39.6541 15.6542C38.1544 17.1539 36.121 17.9976 34 18Z" fill="white"/>
<path d="M54 20C51.4345 19.9999 48.9672 20.9859 47.1082 22.7539C45.2493 24.5219 44.141 26.9368 44.0126 29.4991C43.8841 32.0613 44.7454 34.5749 46.4182 36.52C48.091 38.4651 50.4474 39.6928 53 39.9493V59C53 59.2652 53.1053 59.5196 53.2929 59.7071C53.4804 59.8946 53.7348 60 54 60C54.2652 60 54.5195 59.8946 54.7071 59.7071C54.8946 59.5196 55 59.2652 55 59V39.9493C57.5526 39.6928 59.909 38.4651 61.5818 36.52C63.2546 34.5749 64.1158 32.0613 63.9874 29.4991C63.859 26.9368 62.7507 24.5219 60.8917 22.7539C59.0328 20.9859 56.5654 19.9999 54 20ZM54 38C52.4177 38 50.871 37.5308 49.5554 36.6518C48.2398 35.7727 47.2144 34.5233 46.6089 33.0615C46.0034 31.5997 45.845 29.9911 46.1537 28.4393C46.4624 26.8874 47.2243 25.462 48.3431 24.3431C49.4619 23.2243 50.8874 22.4624 52.4392 22.1537C53.9911 21.845 55.5996 22.0035 57.0614 22.609C58.5232 23.2145 59.7727 24.2398 60.6517 25.5554C61.5308 26.871 62 28.4177 62 30C61.9975 32.121 61.1539 34.1544 59.6541 35.6542C58.1544 37.1539 56.121 37.9976 54 38Z" fill="white"/>
<path d="M14 16C11.4345 15.9999 8.96715 16.9859 7.10822 18.7539C5.24929 20.5219 4.14099 22.9368 4.01255 25.4991C3.88411 28.0613 4.74536 30.5749 6.41817 32.52C8.09097 34.4651 10.4474 35.6928 13 35.9493V59C13 59.2652 13.1053 59.5196 13.2929 59.7071C13.4804 59.8946 13.7348 60 14 60C14.2652 60 14.5195 59.8946 14.7071 59.7071C14.8946 59.5196 15 59.2652 15 59V35.9493C17.5526 35.6928 19.909 34.4651 21.5818 32.52C23.2546 30.5749 24.1158 28.0613 23.9874 25.4991C23.859 22.9368 22.7507 20.5219 20.8917 18.7539C19.0328 16.9859 16.5654 15.9999 14 16ZM14 34C12.4177 34 10.871 33.5308 9.55541 32.6518C8.23982 31.7727 7.21444 30.5233 6.60893 29.0615C6.00343 27.5997 5.84501 25.9911 6.15369 24.4393C6.46237 22.8874 7.2243 21.462 8.34312 20.3431C9.46194 19.2243 10.8874 18.4624 12.4392 18.1537C13.9911 17.845 15.5996 18.0035 17.0614 18.609C18.5232 19.2145 19.7727 20.2398 20.6517 21.5554C21.5308 22.871 22 24.4177 22 26C21.9975 28.121 21.1539 30.1544 19.6541 31.6542C18.1544 33.1539 16.121 33.9976 14 34Z" fill="white"/>
<path d="M34 4C32.8133 4 31.6533 4.35189 30.6666 5.01118C29.6799 5.67047 28.9109 6.60754 28.4567 7.7039C28.0026 8.80026 27.8838 10.0067 28.1153 11.1705C28.3468 12.3344 28.9182 13.4035 29.7574 14.2426C30.5965 15.0818 31.6656 15.6532 32.8295 15.8847C33.9933 16.1162 35.1997 15.9974 36.2961 15.5433C37.3925 15.0892 38.3295 14.3201 38.9888 13.3334C39.6481 12.3467 40 11.1867 40 10C39.9983 8.40923 39.3656 6.88412 38.2407 5.75928C37.1159 4.63444 35.5908 4.00174 34 4ZM34 14C33.2089 14 32.4355 13.7654 31.7777 13.3259C31.1199 12.8864 30.6072 12.2616 30.3045 11.5307C30.0017 10.7998 29.9225 9.99556 30.0769 9.21964C30.2312 8.44371 30.6122 7.73098 31.1716 7.17157C31.731 6.61216 32.4437 6.2312 33.2196 6.07686C33.9956 5.92252 34.7998 6.00173 35.5307 6.30448C36.2616 6.60723 36.8864 7.11992 37.3259 7.77772C37.7654 8.43552 38 9.20887 38 10C37.9989 11.0605 37.5772 12.0773 36.8273 12.8273C36.0773 13.5772 35.0605 13.9989 34 14Z" fill="white"/>
<path d="M54 24C52.8133 24 51.6533 24.3519 50.6666 25.0112C49.6799 25.6705 48.9109 26.6075 48.4567 27.7039C48.0026 28.8003 47.8838 30.0067 48.1153 31.1705C48.3468 32.3344 48.9182 33.4035 49.7574 34.2426C50.5965 35.0818 51.6656 35.6532 52.8295 35.8847C53.9933 36.1162 55.1997 35.9974 56.2961 35.5433C57.3925 35.0892 58.3295 34.3201 58.9888 33.3334C59.6481 32.3467 60 31.1867 60 30C59.9983 28.4092 59.3656 26.8841 58.2407 25.7593C57.1159 24.6344 55.5908 24.0017 54 24ZM54 34C53.2089 34 52.4355 33.7654 51.7777 33.3259C51.1199 32.8864 50.6072 32.2616 50.3045 31.5307C50.0017 30.7998 49.9225 29.9956 50.0769 29.2196C50.2312 28.4437 50.6122 27.731 51.1716 27.1716C51.731 26.6122 52.4437 26.2312 53.2196 26.0769C53.9956 25.9225 54.7998 26.0017 55.5307 26.3045C56.2616 26.6072 56.8864 27.1199 57.3259 27.7777C57.7654 28.4355 58 29.2089 58 30C57.9989 31.0605 57.5772 32.0773 56.8273 32.8273C56.0773 33.5772 55.0605 33.9989 54 34Z" fill="white"/>
<path d="M14 20C12.8133 20 11.6533 20.3519 10.6666 21.0112C9.67989 21.6705 8.91085 22.6075 8.45673 23.7039C8.0026 24.8003 7.88378 26.0067 8.11529 27.1705C8.3468 28.3344 8.91825 29.4035 9.75736 30.2426C10.5965 31.0818 11.6656 31.6532 12.8295 31.8847C13.9933 32.1162 15.1997 31.9974 16.2961 31.5433C17.3925 31.0892 18.3295 30.3201 18.9888 29.3334C19.6481 28.3467 20 27.1867 20 26C19.9983 24.4092 19.3656 22.8841 18.2407 21.7593C17.1159 20.6344 15.5908 20.0017 14 20ZM14 30C13.2089 30 12.4355 29.7654 11.7777 29.3259C11.1199 28.8864 10.6072 28.2616 10.3045 27.5307C10.0017 26.7998 9.92252 25.9956 10.0769 25.2196C10.2312 24.4437 10.6122 23.731 11.1716 23.1716C11.731 22.6122 12.4437 22.2312 13.2196 22.0769C13.9956 21.9225 14.7998 22.0017 15.5307 22.3045C16.2616 22.6072 16.8864 23.1199 17.3259 23.7777C17.7654 24.4355 18 25.2089 18 26C17.9989 27.0605 17.5772 28.0773 16.8273 28.8273C16.0773 29.5772 15.0605 29.9989 14 30Z" fill="white"/>
</g>
<defs>
<filter id="filter0_d_12_29" x="0" y="0" width="67.9999" height="68" filterUnits="userSpaceOnUse" color-interpolation-filters="sRGB">
<feFlood flood-opacity="0" result="BackgroundImageFix"/>
<feColorMatrix in="SourceAlpha" type="matrix" values="0 0 0 0 0 0 0 0 0 0 0 0 0 0 0 0 0 0 127 0" result="hardAlpha"/>
<feOffset dy="4"/>
<feGaussianBlur stdDeviation="2"/>
<feComposite in2="hardAlpha" operator="out"/>
<feColorMatrix type="matrix" values="0 0 0 0 0 0 0 0 0 0 0 0 0 0 0 0 0 0 0.25 0"/>
<feBlend mode="normal" in2="BackgroundImageFix" result="effect1_dropShadow_12_29"/>
<feBlend mode="normal" in="SourceGraphic" in2="effect1_dropShadow_12_29" result="shape"/>
</filter>
</defs>
</svg>
