<svg width="216" height="213" viewBox="0 0 216 213" fill="none" xmlns="http://www.w3.org/2000/svg">
<g filter="url(#filter0_d_12_46)">
<path d="M211.096 106.057C211.093 105.414 210.843 104.797 210.398 104.334C209.953 103.871 209.347 103.596 208.705 103.567L128.153 100.065C127.887 99.6879 127.595 99.3301 127.279 98.9941C125.449 97.1723 122.984 96.1299 120.402 96.0855C117.82 96.0412 115.321 96.9982 113.429 98.756L97.8332 97.9689C97.6242 97.725 97.4579 97.4573 97.227 97.2264C94.9145 94.9228 91.7927 93.6152 88.5288 93.583C85.265 93.5508 82.118 94.7966 79.7605 97.0541L64.3795 96.2777C64.14 96.0004 63.9025 95.7217 63.6394 95.4586C60.8746 92.702 57.1443 91.1313 53.2404 91.0801C49.3365 91.0288 45.5663 92.5009 42.7301 95.184L33.7142 94.7292C33.3649 94.7116 33.0159 94.7674 32.6895 94.8931C32.3632 95.0187 32.0668 95.2114 31.8195 95.4586C29.3442 97.5392 26.2143 98.6799 22.9807 98.6799C19.7471 98.6799 16.6171 97.5392 14.1418 95.4586C13.7922 95.109 13.3468 94.8709 12.8619 94.7744C12.3769 94.678 11.8743 94.7275 11.4175 94.9167C10.9607 95.106 10.5703 95.4264 10.2957 95.8375C10.021 96.2486 9.8744 96.7319 9.87443 97.2264L9.87443 114.904C9.8744 115.398 10.021 115.882 10.2957 116.293C10.5703 116.704 10.9607 117.024 11.4175 117.214C11.8743 117.403 12.3769 117.452 12.8619 117.356C13.3468 117.26 13.7922 117.021 14.1418 116.672C16.6171 114.591 19.7471 113.45 22.9807 113.45C26.2143 113.45 29.3442 114.591 31.8195 116.672C32.0667 116.919 32.3628 117.111 32.6888 117.237C33.0148 117.362 33.3635 117.418 33.7125 117.401L42.7291 116.946C45.5653 119.629 49.3357 121.102 53.2398 121.05C57.1439 120.999 60.8744 119.429 63.6394 116.672C63.9025 116.409 64.1402 116.13 64.3797 115.853L79.7594 115.076C82.1168 117.333 85.264 118.58 88.5281 118.547C91.7922 118.515 94.9143 117.208 97.227 114.904C97.4577 114.673 97.6237 114.406 97.8325 114.162L113.429 113.375C115.321 115.132 117.82 116.09 120.402 116.045C122.984 116.001 125.449 114.958 127.279 113.136C127.438 112.977 127.55 112.792 127.697 112.625L208.722 108.562C209.364 108.53 209.969 108.252 210.411 107.785C210.853 107.318 211.098 106.699 211.096 106.057ZM34.504 112.354C31.736 110.247 28.447 108.932 24.9891 108.55C21.5312 108.169 18.0346 108.735 14.8737 110.188L14.8737 101.943C18.0345 103.396 21.5311 103.962 24.989 103.58C28.4469 103.199 31.7359 101.884 34.5038 99.7763L39.3209 100.019C38.4853 101.925 38.0538 103.984 38.0538 106.065C38.0537 108.146 38.4851 110.205 39.3207 112.111L34.504 112.354ZM45.9617 113.136C44.5632 111.738 43.6107 109.956 43.2249 108.016C42.839 106.076 43.0371 104.066 43.7939 102.238C44.5508 100.411 45.8326 98.8493 47.4771 97.7505C49.1215 96.6517 51.0549 96.0652 53.0328 96.0652C55.0106 96.0652 56.944 96.6517 58.5885 97.7505C60.233 98.8493 61.5147 100.411 62.2716 102.238C63.0285 104.066 63.2265 106.076 62.8406 108.016C62.4548 109.956 61.5024 111.738 60.1038 113.136C58.2271 115.009 55.6841 116.061 53.0328 116.061C50.3815 116.061 47.8384 115.009 45.9617 113.136ZM67.283 101.431L76.6468 101.904C75.6982 104.597 75.6981 107.533 76.6467 110.226L67.2832 110.699C68.2559 107.686 68.2559 104.444 67.283 101.431ZM83.0848 111.369C82.036 110.32 81.3217 108.983 81.0323 107.528C80.7429 106.074 80.8914 104.566 81.4591 103.195C82.0267 101.825 82.988 100.653 84.2214 99.8292C85.4547 99.0051 86.9048 98.5652 88.3882 98.5652C89.8715 98.5652 91.3216 99.0051 92.5549 99.8292C93.7883 100.653 94.7496 101.825 95.3173 103.195C95.8849 104.566 96.0334 106.074 95.7441 107.528C95.4547 108.983 94.7404 110.32 93.6915 111.369C92.2839 112.773 90.3766 113.562 88.3882 113.562C86.3997 113.562 84.4924 112.773 83.0848 111.369ZM100.486 103.109L110.555 103.616C110.149 105.224 110.149 106.907 110.555 108.514L100.486 109.022C100.958 107.079 100.958 105.051 100.486 103.109ZM116.672 109.601C115.973 108.901 115.497 108.011 115.304 107.041C115.111 106.071 115.21 105.065 115.589 104.152C115.967 103.238 116.608 102.457 117.43 101.908C118.252 101.358 119.219 101.065 120.208 101.065C121.197 101.065 122.164 101.358 122.986 101.908C123.808 102.457 124.449 103.238 124.827 104.152C125.206 105.065 125.305 106.071 125.112 107.041C124.919 108.011 124.443 108.901 123.744 109.601C122.805 110.537 121.534 111.063 120.208 111.063C118.882 111.063 117.611 110.537 116.672 109.601ZM130.066 107.499C130.174 106.723 130.191 105.936 130.116 105.156L155.129 106.242L130.066 107.499Z" fill="black"/>
</g>
<defs>
<filter id="filter0_d_12_46" x="5.87439" y="91.0788" width="209.222" height="37.9729" filterUnits="userSpaceOnUse" color-interpolation-filters="sRGB">
<feFlood flood-opacity="0" result="BackgroundImageFix"/>
<feColorMatrix in="SourceAlpha" type="matrix" values="0 0 0 0 0 0 0 0 0 0 0 0 0 0 0 0 0 0 127 0" result="hardAlpha"/>
<feOffset dy="4"/>
<feGaussianBlur stdDeviation="2"/>
<feComposite in2="hardAlpha" operator="out"/>
<feColorMatrix type="matrix" values="0 0 0 0 0 0 0 0 0 0 0 0 0 0 0 0 0 0 0.25 0"/>
<feBlend mode="normal" in2="BackgroundImageFix" result="effect1_dropShadow_12_46"/>
<feBlend mode="normal" in="SourceGraphic" in2="effect1_dropShadow_12_46" result="shape"/>
</filter>
</defs>
</svg>
