<svg width="68" height="68" viewBox="0 0 68 68" fill="none" xmlns="http://www.w3.org/2000/svg">
<g opacity="0.2" filter="url(#filter0_d_12_37)">
<path d="M63.8575 35.4854L54.8575 20.4853C54.7621 20.346 54.6341 20.2321 54.4847 20.1533C54.3353 20.0746 54.169 20.0334 54.0001 20.0334C53.8312 20.0334 53.6649 20.0746 53.5155 20.1533C53.3661 20.2321 53.2382 20.346 53.1427 20.4853L52.0001 22.3896V17H53.0001C53.1586 17.0001 53.3148 16.9624 53.4559 16.8902C53.597 16.818 53.7189 16.7133 53.8115 16.5847C53.9041 16.4561 53.9648 16.3073 53.9886 16.1507C54.0124 15.994 53.9986 15.8339 53.9484 15.6836L48.9484 0.683588C48.8821 0.484539 48.7548 0.311403 48.5846 0.188713C48.4144 0.0660226 48.2099 0 48.0001 0C47.7903 0 47.5858 0.0660226 47.4156 0.188713C47.2455 0.311403 47.1182 0.484539 47.0519 0.683588L42.0519 15.6836C42.0016 15.8339 41.9878 15.994 42.0116 16.1507C42.0354 16.3073 42.0961 16.4561 42.1888 16.5847C42.2814 16.7133 42.4033 16.818 42.5444 16.8902C42.6854 16.9624 42.8416 17.0001 43.0001 17H44.0001V31H39.0001V16.1924L40.9288 11.3716C40.9759 11.2533 41 11.1272 41.0001 11V4C41.0001 3.73478 40.8948 3.48043 40.7072 3.29289C40.5197 3.10536 40.2653 3 40.0001 3C39.7349 3 39.4806 3.10536 39.293 3.29289C39.1055 3.48043 39.0001 3.73478 39.0001 4V6H37.0001V4C37.0001 3.73478 36.8948 3.48043 36.7072 3.29289C36.5197 3.10536 36.2653 3 36.0001 3C35.7349 3 35.4806 3.10536 35.293 3.29289C35.1055 3.48043 35.0001 3.73478 35.0001 4V6H33.0001V4C33.0001 3.73478 32.8948 3.48043 32.7072 3.29289C32.5197 3.10536 32.2653 3 32.0001 3C31.7349 3 31.4806 3.10536 31.293 3.29289C31.1055 3.48043 31.0001 3.73478 31.0001 4V6H29.0001V4C29.0001 3.73478 28.8948 3.48043 28.7072 3.29289C28.5197 3.10536 28.2653 3 28.0001 3C27.7349 3 27.4806 3.10536 27.293 3.29289C27.1055 3.48043 27.0001 3.73478 27.0001 4V11C27.0002 11.1272 27.0244 11.2533 27.0714 11.3716L29.0001 16.1924V31H24.0001V17H25.0001C25.1586 17.0001 25.3148 16.9624 25.4559 16.8902C25.597 16.818 25.7189 16.7133 25.8115 16.5847C25.9041 16.4561 25.9648 16.3073 25.9886 16.1507C26.0124 15.994 25.9986 15.8339 25.9484 15.6836L20.9484 0.683588C20.8821 0.484539 20.7548 0.311403 20.5846 0.188713C20.4144 0.0660226 20.2099 0 20.0001 0C19.7903 0 19.5858 0.0660226 19.4157 0.188713C19.2455 0.311403 19.1182 0.484539 19.0519 0.683588L14.0519 15.6836C14.0016 15.8339 13.9878 15.994 14.0116 16.1507C14.0354 16.3073 14.0961 16.4561 14.1888 16.5847C14.2814 16.7133 14.4033 16.818 14.5444 16.8902C14.6854 16.9624 14.8416 17.0001 15.0001 17H16.0001V22.3896L14.8575 20.4853C14.7621 20.346 14.6341 20.2321 14.4847 20.1533C14.3353 20.0746 14.169 20.0334 14.0001 20.0334C13.8312 20.0334 13.6649 20.0746 13.5155 20.1533C13.3661 20.2321 13.2382 20.346 13.1427 20.4853L4.14271 35.4854C4.05158 35.6371 4.00236 35.8103 4.00008 35.9873C3.99781 36.1643 4.04255 36.3387 4.12974 36.4927C4.21694 36.6467 4.34346 36.7749 4.49637 36.864C4.64929 36.9531 4.82313 37 5.00013 37H7.00013V59C7.00005 59.1313 7.02586 59.2614 7.07609 59.3828C7.12632 59.5041 7.19998 59.6144 7.29285 59.7073C7.38572 59.8001 7.49599 59.8738 7.61735 59.924C7.73871 59.9743 7.86878 60.0001 8.00013 60H60.0001C60.1315 60.0001 60.2615 59.9743 60.3829 59.924C60.5043 59.8738 60.6145 59.8001 60.7074 59.7073C60.8003 59.6144 60.8739 59.5041 60.9242 59.3828C60.9744 59.2614 61.0002 59.1313 61.0001 59V37H63.0001C63.1771 37 63.351 36.9531 63.5039 36.864C63.6568 36.7749 63.7833 36.6467 63.8705 36.4927C63.9577 36.3387 64.0024 36.1643 64.0002 35.9873C63.9979 35.8103 63.9487 35.6371 63.8575 35.4854ZM54.0001 22.9438L58.8336 31H49.1666L54.0001 22.9438ZM50.0001 21V23H46.0001V21H50.0001ZM46.0001 19V17H50.0001V19H46.0001ZM50.0001 25V25.723L46.0001 32.3897V25H50.0001ZM48.0001 4.16211L51.6124 15H44.3878L48.0001 4.16211ZM29.0001 8H39.0001V10H29.0001V8ZM31.0001 27V17H37.0001V27H31.0001ZM37.0001 29V31H31.0001V29H37.0001ZM30.6774 15L29.4772 12H38.5231L37.3229 15H30.6774ZM20.0001 4.16211L23.6124 15H16.3878L20.0001 4.16211ZM18.0001 23V21H22.0001V23H18.0001ZM22.0001 25V32.3896L18.0001 25.723V25H22.0001ZM18.0001 19V17H22.0001V19H18.0001ZM14.0001 22.9438L18.8336 31H9.16663L14.0001 22.9438ZM6.76673 35L7.96673 33H20.0336L21.2336 35H6.76673ZM19.0001 58H15.0001V55C15.0001 54.7348 14.8948 54.4804 14.7072 54.2929C14.5197 54.1054 14.2653 54 14.0001 54C13.7349 54 13.4806 54.1054 13.293 54.2929C13.1055 54.4804 13.0001 54.7348 13.0001 55V58H9.00013V37H19.0001V58ZM21.0001 56H27.1453C27.0831 56.6277 27.0343 57.2841 27.0138 58H21.0001V56ZM29.0162 58C29.144 53.681 30.1656 49 34.0001 49C37.8346 49 38.8562 53.681 38.984 58H29.0162ZM47.0001 58H40.9865C40.9659 57.2841 40.9171 56.6277 40.855 56H47.0001V58ZM47.0001 54H40.5629C39.3961 48.0449 36.12 47 34.0001 47C31.8803 47 28.6041 48.0449 27.4374 54H21.0001V37H23.0001C23.1186 36.9977 23.2357 36.9741 23.3458 36.9303C23.3739 36.9199 23.4 36.9092 23.4269 36.8963C23.5277 36.8506 23.6201 36.7883 23.7003 36.712L23.7084 36.7058C23.7716 36.6425 23.826 36.5709 23.8702 36.4931C23.8825 36.4715 23.8871 36.4474 23.8976 36.425C23.9108 36.3974 23.9208 36.3698 23.9314 36.3409C23.9708 36.2377 23.9928 36.1288 23.9965 36.0185C23.9965 36.012 24.0001 36.0066 24.0001 36V33H44.0001V36C44.0001 36.0066 44.0038 36.012 44.0038 36.0186C44.0075 36.1289 44.0296 36.2378 44.069 36.3409C44.0795 36.3699 44.0895 36.3973 44.1027 36.4249C44.1132 36.4473 44.1178 36.4714 44.13 36.4932C44.1742 36.571 44.2287 36.6425 44.2919 36.7058L44.2999 36.7121C44.3802 36.7883 44.4726 36.8506 44.5734 36.8964C44.6002 36.9092 44.6264 36.9199 44.6544 36.9303C44.7645 36.9741 44.8816 36.9977 45.0001 37H47.0001V54ZM59.0001 58H55.0001V55C55.0001 54.7348 54.8948 54.4804 54.7072 54.2929C54.5197 54.1054 54.2653 54 54.0001 54C53.7349 54 53.4806 54.1054 53.293 54.2929C53.1055 54.4804 53.0001 54.7348 53.0001 55V58H49.0001V37H59.0001V58ZM46.7667 35L47.9667 33H60.0336L61.2336 35H46.7667Z" fill="white"/>
<path d="M12 47H16C16.1313 47.0001 16.2614 46.9743 16.3828 46.924C16.5041 46.8738 16.6144 46.8001 16.7073 46.7073C16.8002 46.6144 16.8738 46.5041 16.924 46.3828C16.9743 46.2614 17.0001 46.1313 17 46C17 42.5156 16.0723 39 14 39C11.9277 39 11 42.5156 11 46C10.9999 46.1313 11.0257 46.2614 11.076 46.3828C11.1262 46.5041 11.1998 46.6144 11.2927 46.7073C11.3856 46.8001 11.4959 46.8738 11.6172 46.924C11.7386 46.9743 11.8687 47.0001 12 47ZM14 41.0898C14.6478 42.2907 14.982 43.6356 14.9717 45H13.0283C13.018 43.6356 13.3522 42.2907 14 41.0898Z" fill="white"/>
<path d="M52 47H56C56.1313 47.0001 56.2614 46.9743 56.3828 46.924C56.5041 46.8738 56.6144 46.8001 56.7073 46.7073C56.8001 46.6144 56.8738 46.5041 56.924 46.3828C56.9743 46.2614 57.0001 46.1313 57 46C57 42.5156 56.0723 39 54 39C51.9277 39 51 42.5156 51 46C50.9999 46.1313 51.0257 46.2614 51.076 46.3828C51.1262 46.5041 51.1999 46.6144 51.2927 46.7073C51.3856 46.8001 51.4959 46.8738 51.6172 46.924C51.7386 46.9743 51.8687 47.0001 52 47ZM54 41.0898C54.6478 42.2907 54.982 43.6356 54.9717 45H53.0283C53.018 43.6356 53.3522 42.2907 54 41.0898Z" fill="white"/>
<path d="M34 19C33.8687 19 33.7386 19.0258 33.6173 19.0761C33.4959 19.1263 33.3857 19.2 33.2928 19.2928C33.2 19.3857 33.1263 19.4959 33.0761 19.6173C33.0258 19.7386 33 19.8687 33 20V21C33 21.2652 33.1054 21.5196 33.2929 21.7071C33.4804 21.8946 33.7348 22 34 22C34.2652 22 34.5196 21.8946 34.7071 21.7071C34.8946 21.5196 35 21.2652 35 21V20C35 19.8687 34.9742 19.7386 34.9239 19.6173C34.8737 19.4959 34.8 19.3857 34.7072 19.2928C34.6143 19.2 34.5041 19.1263 34.3827 19.0761C34.2614 19.0258 34.1313 19 34 19Z" fill="white"/>
<path d="M26 39C23.9277 39 23 42.5156 23 46C22.9999 46.1313 23.0257 46.2614 23.076 46.3828C23.1262 46.5041 23.1998 46.6144 23.2927 46.7073C23.3856 46.8001 23.4959 46.8738 23.6172 46.924C23.7386 46.9743 23.8687 47.0001 24 47H28C28.1313 47.0001 28.2614 46.9743 28.3828 46.924C28.5041 46.8738 28.6144 46.8001 28.7073 46.7073C28.8002 46.6144 28.8738 46.5041 28.924 46.3828C28.9743 46.2614 29.0001 46.1313 29 46C29 42.5156 28.0723 39 26 39ZM25.0283 45C25.018 43.6356 25.3522 42.2907 26 41.0898C26.6478 42.2907 26.982 43.6356 26.9717 45H25.0283Z" fill="white"/>
<path d="M34 35C31.9277 35 31 38.5156 31 42C30.9999 42.1313 31.0257 42.2614 31.076 42.3828C31.1262 42.5041 31.1998 42.6144 31.2927 42.7073C31.3856 42.8001 31.4959 42.8738 31.6172 42.924C31.7386 42.9743 31.8687 43.0001 32 43H36C36.1313 43.0001 36.2614 42.9743 36.3828 42.924C36.5041 42.8738 36.6144 42.8001 36.7073 42.7073C36.8001 42.6144 36.8738 42.5041 36.924 42.3828C36.9743 42.2614 37.0001 42.1313 37 42C37 38.5156 36.0723 35 34 35ZM33.0283 41C33.018 39.6356 33.3522 38.2907 34 37.0898C34.6478 38.2907 34.982 39.6356 34.9717 41H33.0283Z" fill="white"/>
<path d="M42 39C39.9277 39 39 42.5156 39 46C38.9999 46.1313 39.0257 46.2614 39.076 46.3828C39.1262 46.5041 39.1999 46.6144 39.2927 46.7073C39.3856 46.8001 39.4959 46.8738 39.6172 46.924C39.7386 46.9743 39.8687 47.0001 40 47H44C44.1313 47.0001 44.2614 46.9743 44.3828 46.924C44.5041 46.8738 44.6144 46.8001 44.7073 46.7073C44.8001 46.6144 44.8738 46.5041 44.924 46.3828C44.9743 46.2614 45.0001 46.1313 45 46C45 42.5156 44.0723 39 42 39ZM41.0283 45C41.018 43.6356 41.3522 42.2907 42 41.0898C42.6478 42.2907 42.982 43.6356 42.9717 45H41.0283Z" fill="white"/>
</g>
<defs>
<filter id="filter0_d_12_37" x="0" y="0" width="68.0002" height="68" filterUnits="userSpaceOnUse" color-interpolation-filters="sRGB">
<feFlood flood-opacity="0" result="BackgroundImageFix"/>
<feColorMatrix in="SourceAlpha" type="matrix" values="0 0 0 0 0 0 0 0 0 0 0 0 0 0 0 0 0 0 127 0" result="hardAlpha"/>
<feOffset dy="4"/>
<feGaussianBlur stdDeviation="2"/>
<feComposite in2="hardAlpha" operator="out"/>
<feColorMatrix type="matrix" values="0 0 0 0 0 0 0 0 0 0 0 0 0 0 0 0 0 0 0.25 0"/>
<feBlend mode="normal" in2="BackgroundImageFix" result="effect1_dropShadow_12_37"/>
<feBlend mode="normal" in="SourceGraphic" in2="effect1_dropShadow_12_37" result="shape"/>
</filter>
</defs>
</svg>
