<svg width="96" height="91" viewBox="0 0 96 91" fill="none" xmlns="http://www.w3.org/2000/svg">
<path d="M72.7952 84.7171C60.8999 89.9785 47.6018 90.9442 34.8161 89.2656C32.0913 88.95 29.3957 88.3947 26.7571 87.6052C12.3997 83.072 2.38528 67.9368 0.381251 52.1436C-0.119755 48.1831 -0.191327 44.1342 0.558751 40.2225C1.07823 37.7198 1.81033 35.2725 2.746 32.9108C7.21784 21.075 14.4839 9.75712 25.3113 4.27336C34.8419 -0.57063 45.8869 -0.345186 56.4195 0.480425C59.3081 0.708915 62.2111 0.973964 65.0253 1.69904C68.7471 2.67088 72.2541 4.44092 75.472 6.66184C89.1137 16.0421 97.23 33.8065 95.7499 51.0164C94.7736 62.322 89.6433 73.4449 80.9545 80.0315C78.4078 81.9163 75.6698 83.4901 72.7924 84.7232L72.7952 84.7171ZM38.409 85.3478C48.203 86.4597 58.3405 85.9296 67.5132 82.1123C76.6859 78.295 84.8108 70.8919 88.3665 61.1187C89.3298 58.4127 89.9908 55.5956 90.3362 52.7255C92.0739 39.0435 87.4733 24.612 78.2519 14.8905C74.8794 11.3322 70.8771 8.35267 66.3594 6.79589C63.3162 5.74788 60.1098 5.36097 56.9119 5.166C46.6083 4.55057 36.284 5.89165 26.4221 9.12649C24.6443 9.71143 23.1412 10.9788 21.7527 12.2979C11.7498 21.7848 5.20809 35.8172 5.87228 50.0567C6.53647 64.2962 15.108 78.231 27.7305 83.0141C31.1659 84.315 34.7846 84.9487 38.409 85.3599V85.3478Z" fill="black"/>
<path d="M46.9548 60.5764C47.1065 59.245 45.3802 58.7241 44.1205 58.7485C37.8791 58.8774 31.6743 59.7979 25.6377 61.4903C23.6909 62.0357 20.8796 62.1545 20.433 60.0646C19.9864 57.9746 22.5716 56.7895 24.5584 56.4849C40.9004 53.9902 57.4531 53.4445 73.9089 54.858C74.4051 54.8618 74.8942 54.9835 75.3404 55.2145C76.5227 55.9487 76.4197 57.7736 76.162 59.2024L74.7821 66.8461C74.4758 68.5431 74.1551 70.2796 73.3507 71.7724C71.2636 75.5836 66.6601 76.7443 62.5461 77.2836C58.1659 77.8563 53.2016 77.9477 49.9494 74.7641C46.471 71.3489 46.3937 65.5849 46.9634 60.5855L46.9548 60.5764ZM68.7929 59.2268C68.4113 59.0531 67.9957 58.981 67.5819 59.0165H64.5931C64.368 58.9944 64.1416 59.0409 63.9403 59.1506C63.6369 59.3578 63.5796 59.7965 63.5682 60.1803C63.5309 61.7236 63.8195 63.256 64.4127 64.6648C65.1599 66.4349 64.0463 68.7929 62.2655 69.2133C60.4848 69.6337 58.5438 67.9947 58.5152 66.054L58.4436 60.5154C58.4689 60.1813 58.4044 59.8463 58.2575 59.5497C57.9712 59.0714 57.3328 59.0196 56.7946 59.0165L54.049 58.9952C53.5165 58.9952 52.9297 58.9952 52.5403 59.3943C52.151 59.7934 52.0937 60.3662 52.0479 60.9176C51.8733 62.9984 51.6986 65.1188 52.1252 67.1569C52.5518 69.195 53.6826 71.1783 55.469 72.0313C56.5197 72.5401 57.705 72.6407 58.8616 72.6407C60.855 72.6517 62.8444 72.4475 64.7992 72.0313C66.1934 71.7267 67.6821 71.2484 68.4895 70.0054C68.8629 69.3638 69.1147 68.6508 69.231 67.9063C69.6573 65.8182 69.8257 63.6797 69.732 61.5452C69.6919 60.6617 69.523 59.635 68.7872 59.2207L68.7929 59.2268Z" fill="black"/>
<path d="M70.479 23.8991C69.7805 24.5816 69.0161 25.5473 69.3825 26.4795L75.5664 32.2131C76.3537 32.9443 77.1954 33.779 77.3099 34.8849C77.5103 36.8469 75.1255 38.163 73.3534 37.575C71.5812 36.987 70.3903 35.2718 69.3052 33.6724C68.2202 32.073 66.972 30.3822 65.1741 29.8917C63.6741 30.9628 62.4006 32.3553 61.4351 33.9801C60.5047 35.5491 59.8348 37.3648 58.4721 38.5255C57.1093 39.6863 54.6959 39.7442 53.9515 38.0594C53.2072 36.3747 54.5528 34.626 55.7781 33.3617L60.4847 28.4964C61.1918 27.7652 61.8961 26.4795 61.1317 25.8215L57.533 22.7323C56.6484 21.9737 55.6779 21.0202 55.7466 19.8137C55.8267 18.3788 57.4471 17.5136 58.7727 17.7786C60.0982 18.0437 61.1632 19.0673 62.1509 20.0483L64.0547 21.9402C64.424 22.3058 64.842 22.6958 65.3459 22.7049C65.6796 22.6892 66.0015 22.5683 66.2706 22.3576C67.43 21.5563 68.1629 20.225 68.9474 19.0247C69.7318 17.8243 70.7023 16.5875 72.0393 16.2249C73.3763 15.8624 75.0854 16.7702 75.0997 18.2417C75.0997 19.2836 74.3325 20.1184 73.6139 20.8252L70.4876 23.8717L70.479 23.8991Z" fill="black"/>
<path d="M22.6314 25.5412C23.2784 26.1505 24.2404 25.3615 24.7729 24.6273L27.3208 21.1177C27.9364 20.2677 28.592 19.3872 29.5167 18.9607C30.4414 18.5342 31.7125 18.7596 32.1591 19.7223C32.6744 20.8282 31.8728 22.0895 31.1228 23.0278L28.3429 26.4978C27.9451 26.9292 27.6429 27.4496 27.4583 28.0211C27.3122 28.5999 27.4583 29.3098 27.9621 29.5962L34.4323 33.3221C35.523 33.9527 36.7512 34.8057 36.8228 36.1218C36.9087 37.7121 35.105 38.7876 33.6307 38.5073C32.1563 38.227 30.9853 37.0845 29.8373 36.07C28.6565 35.0174 27.4134 34.0466 26.1156 33.1636C25.7878 32.9086 25.4132 32.7301 25.0162 32.6396C23.9398 32.4751 23.0437 33.5688 22.6973 34.6656C22.3509 35.7623 22.3051 36.9779 21.7611 37.9802C21.131 39.1443 19.9317 39.8235 18.6724 39.7295C17.4131 39.6355 16.3147 38.7848 15.8435 37.5385C16.8708 35.1051 18.321 32.9003 20.1178 31.0402C20.7734 30.3669 20.5014 29.13 19.8516 28.4476C19.2017 27.7652 18.3027 27.4483 17.504 26.9792C16.7052 26.51 15.9294 25.7606 15.9036 24.7826C16.3817 23.4574 17.9849 22.9334 19.2818 23.2776C20.5787 23.6219 21.6351 24.5968 22.6314 25.5412Z" fill="black"/>
</svg>
