<svg width="68" height="56" viewBox="0 0 68 56" fill="none" xmlns="http://www.w3.org/2000/svg">
<g opacity="0.2" filter="url(#filter0_d_12_60)">
<path d="M63.7133 46.2917L57.2919 39.8703C58.2271 38.4023 58.7975 36.732 58.9556 34.9987H61.0063C61.2715 34.9987 61.5259 34.8933 61.7134 34.7058C61.9009 34.5182 62.0063 34.2639 62.0063 33.9987C62.0063 33.7334 61.9009 33.4791 61.7134 33.2915C61.5259 33.104 61.2715 32.9987 61.0063 32.9987H58.9556C58.725 30.4655 57.6234 28.0907 55.8384 26.2786C54.0534 24.4664 51.6955 23.3291 49.1661 23.0602C46.6368 22.7914 44.0924 23.4077 41.9664 24.8041C39.8404 26.2005 38.2642 28.2907 37.5062 30.7187C37.0684 30.2115 36.5328 29.7978 35.9315 29.5022C35.3301 29.2067 34.6753 29.0354 34.0063 28.9987C33.3372 29.0354 32.6825 29.2067 32.0811 29.5022C31.4798 29.7978 30.9442 30.2115 30.5064 30.7187C29.7484 28.2907 28.1722 26.2005 26.0462 24.8041C23.9201 23.4077 21.3758 22.7914 18.8464 23.0602C16.3171 23.3291 13.9591 24.4664 12.1742 26.2786C10.3892 28.0907 9.28759 30.4655 9.05695 32.9987H7.00629C6.74108 32.9987 6.48672 33.104 6.29919 33.2915C6.11165 33.4791 6.00629 33.7334 6.00629 33.9987C6.00629 34.2639 6.11165 34.5182 6.29919 34.7058C6.48672 34.8933 6.74108 34.9987 7.00629 34.9987H9.05695C9.21513 36.7321 9.78563 38.4025 10.7208 39.8705L4.29929 46.2917C4.20506 46.3842 4.1301 46.4945 4.07873 46.6161C4.02736 46.7378 4.00061 46.8685 4.00001 47.0005C3.99941 47.1326 4.02498 47.2635 4.07525 47.3856C4.12551 47.5077 4.19947 47.6187 4.29286 47.7121C4.38625 47.8055 4.49721 47.8794 4.61934 47.9297C4.74147 47.98 4.87235 48.0055 5.00442 48.0049C5.13649 48.0043 5.26713 47.9776 5.3888 47.9262C5.51047 47.8748 5.62076 47.7999 5.71329 47.7057L11.9529 41.4665C13.4529 43.0908 15.4082 44.2247 17.5631 44.7198C19.718 45.2149 21.9721 45.0481 24.0306 44.2412C26.0892 43.4344 27.8563 42.0251 29.1009 40.1976C30.3455 38.3702 31.0096 36.2097 31.0063 33.9987C31.1291 33.2474 31.4848 32.5537 32.0231 32.0154C32.5613 31.4772 33.255 31.1215 34.0063 30.9987C34.7575 31.1215 35.4513 31.4772 35.9895 32.0154C36.5278 32.5537 36.8834 33.2474 37.0063 33.9987C37.003 36.2097 37.6671 38.3702 38.9117 40.1977C40.1563 42.0252 41.9235 43.4345 43.9821 44.2413C46.0406 45.0481 48.2948 45.2149 50.4497 44.7197C52.6046 44.2246 54.5599 43.0907 56.0598 41.4662L62.2993 47.7057C62.4874 47.8904 62.7408 47.9933 63.0044 47.9921C63.268 47.9909 63.5205 47.8857 63.7069 47.6993C63.8933 47.5129 63.9986 47.2604 63.9998 46.9968C64.001 46.7332 63.898 46.4797 63.7133 46.2917ZM20.0063 42.9987C18.2263 42.9987 16.4862 42.4708 15.0062 41.4819C13.5261 40.4929 12.3726 39.0873 11.6914 37.4428C11.0102 35.7983 10.832 33.9887 11.1792 32.2428C11.5265 30.497 12.3837 28.8934 13.6423 27.6347C14.901 26.376 16.5047 25.5188 18.2505 25.1716C19.9963 24.8243 21.8059 25.0025 23.4504 25.6837C25.095 26.3649 26.5006 27.5185 27.4895 28.9985C28.4785 30.4786 29.0063 32.2186 29.0063 33.9987C29.0036 36.3848 28.0545 38.6724 26.3673 40.3596C24.68 42.0469 22.3924 42.996 20.0063 42.9987ZM48.0063 42.9987C46.2263 42.9987 44.4862 42.4708 43.0062 41.4819C41.5261 40.4929 40.3726 39.0873 39.6914 37.4428C39.0102 35.7983 38.832 33.9887 39.1792 32.2428C39.5265 30.497 40.3837 28.8934 41.6423 27.6347C42.901 26.376 44.5047 25.5188 46.2505 25.1716C47.9963 24.8243 49.8059 25.0025 51.4504 25.6837C53.095 26.3649 54.5006 27.5185 55.4895 28.9985C56.4785 30.4786 57.0063 32.2186 57.0063 33.9987C57.0036 36.3848 56.0545 38.6724 54.3673 40.3596C52.68 42.0469 50.3924 42.996 48.0063 42.9987Z" fill="white"/>
<path d="M22.0946 18.4103C22.2038 18.652 22.4046 18.8405 22.6527 18.9343C22.9009 19.0281 23.1761 19.0194 23.4179 18.9103C23.6597 18.8011 23.8482 18.6004 23.9419 18.3522C24.0357 18.104 24.027 17.8288 23.9179 17.587L20.6366 10.3209L25.8793 10.9903C26.0554 11.0147 26.2348 10.9908 26.3984 10.9214C26.562 10.8519 26.7037 10.7394 26.8085 10.5958C26.9144 10.4535 26.9805 10.2855 27 10.1092C27.0196 9.93285 26.9919 9.7545 26.9198 9.59239L22.9198 0.592394C22.8119 0.350444 22.6123 0.16124 22.3649 0.0663396C22.1176 -0.0285611 21.8426 -0.0213987 21.6005 0.0862542C21.3585 0.193907 21.169 0.393248 21.0738 0.640492C20.9785 0.887735 20.9854 1.16266 21.0927 1.40489L24.371 8.78135L19.1161 8.11045C18.9396 8.08676 18.7599 8.11114 18.596 8.18101C18.4321 8.25087 18.2901 8.36365 18.185 8.50745C18.0792 8.65051 18.0135 8.81916 17.9947 8.99605C17.9758 9.17293 18.0044 9.35165 18.0776 9.5138L22.0946 18.4103Z" fill="white"/>
<path d="M20.0064 38.9985C18.8237 39.0024 17.6783 38.5855 16.7749 37.8222C15.8716 37.059 15.2693 35.9992 15.0757 34.8325C15.0318 34.5709 14.8858 34.3375 14.6698 34.1836C14.4537 34.0296 14.1854 33.9678 13.9238 34.0117C13.6622 34.0556 13.4288 34.2016 13.2749 34.4177C13.1209 34.6337 13.0591 34.902 13.103 35.1636C13.3739 36.7972 14.2172 38.2813 15.4819 39.3503C16.7466 40.4193 18.3504 41.0035 20.0064 40.9985C20.2716 40.9985 20.5259 40.8932 20.7135 40.7056C20.901 40.5181 21.0064 40.2637 21.0064 39.9985C21.0064 39.7333 20.901 39.479 20.7135 39.2914C20.5259 39.1039 20.2716 38.9985 20.0064 38.9985Z" fill="white"/>
<path d="M48.0064 38.9985C46.8237 39.0024 45.6783 38.5855 44.7749 37.8222C43.8716 37.059 43.2693 35.9992 43.0757 34.8325C43.0318 34.5709 42.8858 34.3375 42.6698 34.1836C42.4537 34.0296 42.1854 33.9678 41.9238 34.0117C41.6622 34.0556 41.4288 34.2016 41.2749 34.4177C41.1209 34.6337 41.0591 34.902 41.103 35.1636C41.3739 36.7972 42.2172 38.2813 43.4819 39.3503C44.7466 40.4193 46.3504 41.0035 48.0064 40.9985C48.2716 40.9985 48.5259 40.8932 48.7135 40.7056C48.901 40.5181 49.0064 40.2637 49.0064 39.9985C49.0064 39.7333 48.901 39.479 48.7135 39.2914C48.5259 39.1039 48.2716 38.9985 48.0064 38.9985Z" fill="white"/>
</g>
<defs>
<filter id="filter0_d_12_60" x="0" y="0" width="67.9998" height="56.0049" filterUnits="userSpaceOnUse" color-interpolation-filters="sRGB">
<feFlood flood-opacity="0" result="BackgroundImageFix"/>
<feColorMatrix in="SourceAlpha" type="matrix" values="0 0 0 0 0 0 0 0 0 0 0 0 0 0 0 0 0 0 127 0" result="hardAlpha"/>
<feOffset dy="4"/>
<feGaussianBlur stdDeviation="2"/>
<feComposite in2="hardAlpha" operator="out"/>
<feColorMatrix type="matrix" values="0 0 0 0 0 0 0 0 0 0 0 0 0 0 0 0 0 0 0.25 0"/>
<feBlend mode="normal" in2="BackgroundImageFix" result="effect1_dropShadow_12_60"/>
<feBlend mode="normal" in="SourceGraphic" in2="effect1_dropShadow_12_60" result="shape"/>
</filter>
</defs>
</svg>
