<svg width="75" height="90" viewBox="0 0 75 90" fill="none" xmlns="http://www.w3.org/2000/svg">
<path d="M73.4476 3.652C66.1856 0 37.1266 0 37.1266 0C37.1266 0 8.16056 0 0.919556 3.652C0.919556 3.652 -1.14944 42.569 0.919556 59.597C2.16056 69.787 14.8956 78.673 24.9096 84.166C27.6816 85.687 30.2476 86.949 32.3066 87.9C35.2346 89.255 37.1276 90 37.1276 90C37.1276 90 37.2206 89.969 37.3866 89.897C38.3386 89.514 41.8346 88.066 46.3146 85.79C56.6066 80.535 72.0716 70.863 73.4476 59.597C75.5166 42.569 73.4476 3.652 73.4476 3.652ZM17.0996 55.087C17.0996 55.087 16.6756 64.708 15.8166 69.404C15.5376 70.976 15.8686 72.539 16.4376 73.935C10.4896 69.497 5.38956 64.045 4.67556 58.087C4.42756 56.028 4.24156 53.618 4.11656 50.98C4.73756 51.715 5.61656 52.366 6.84756 52.739C6.84756 52.739 5.56456 47.184 7.69556 47.608C7.69556 47.608 10.4786 46.967 11.5436 45.043C11.5436 45.043 17.7406 47.183 17.0996 55.087ZM47.2856 80.566C47.2856 80.561 47.2856 80.555 47.2866 80.55C47.3116 79.837 47.1406 79.135 46.8366 78.49C46.3156 77.382 45.2006 75.13 44.3286 74.156C44.0596 73.856 43.8856 73.482 43.8996 73.079C43.9396 71.867 44.3726 69.277 47.0176 66.633C47.0176 66.633 54.0726 60.643 53.4316 57.436C53.4316 57.436 56.6386 56.795 57.4866 57.653C57.4866 57.653 60.9106 57.229 62.4106 57.653C63.9006 58.077 67.1076 60.436 67.9656 60.001C67.9656 60.001 68.5036 60.239 69.1756 60.415C66.5376 68.856 55.6446 76.097 47.2856 80.566ZM70.1686 52.645C69.5896 52.179 68.8136 51.879 67.7476 51.879C64.7576 51.879 64.7576 52.314 62.4096 52.314C60.0506 52.314 57.9196 51.238 57.9196 51.238C57.9196 51.238 62.2886 45.676 61.4476 41.642C61.3836 41.333 61.3796 41.018 61.4766 40.717C61.7946 39.734 62.6516 37.526 64.1776 36.609C64.6476 36.327 64.9976 35.886 65.0556 35.34C65.2736 33.286 65.9326 29.189 66.8886 28.592C66.8886 28.592 67.6456 26.725 67.3226 26.026C66.9356 25.187 66.5706 23.694 64.3226 24.526C63.7996 24.72 60.8896 26.999 60.3846 27.87C59.7656 28.938 58.9846 30.464 58.9846 31.364C58.9846 31.364 58.6686 32.445 58.9356 34.187C58.9666 34.391 55.7776 42.908 53.8536 43.333C53.8536 43.333 50.6466 37.561 48.2986 36.919C48.2986 36.919 45.5266 36.712 44.8846 36.071C44.8846 36.071 47.0156 34.364 49.3746 34.995C49.3746 34.995 49.5816 30.516 50.6466 30.516C50.6466 30.516 47.4496 30.299 45.9496 30.94C45.9496 30.94 41.4596 29.657 45.3086 26.45C45.3086 26.45 46.5916 27.091 47.4496 27.091C47.4496 27.091 48.2976 28.374 48.2976 29.232C48.2976 29.232 49.3736 29.232 49.3736 28.797L49.7976 29.232C49.7976 29.232 51.0806 27.515 51.0806 26.666C51.0806 26.666 53.6456 23.459 53.3256 22.073C53.3256 22.073 50.9666 20.356 47.9776 20.356C47.9776 20.356 47.1296 17.801 43.7056 17.159C43.7056 17.159 39.8576 14.159 38.7916 14.159L39.8576 15.235C39.8576 15.235 32.0576 12.773 30.5676 14.697C30.5676 14.697 33.7746 15.338 33.7746 16.404C33.7746 16.404 28.6436 15.121 27.3606 17.263C27.3606 17.263 29.0676 16.839 29.4916 17.263C29.4916 17.263 23.2946 19.828 22.8706 21.318C22.8706 21.318 23.9366 20.894 24.3706 21.318C24.3706 21.318 22.6536 22.818 22.6536 23.459C22.6536 23.459 23.7296 23.035 23.7296 23.459C23.7296 23.459 20.5226 27.09 20.9466 28.59C20.9466 28.59 21.5876 27.514 23.0876 27.514C23.0876 27.514 22.0116 30.938 20.3046 32.004C20.3046 32.004 21.3706 32.004 22.0116 31.363C22.0116 31.363 20.7286 35.635 17.3146 36.494C17.3146 36.494 18.1736 36.918 19.2386 36.918C19.2386 36.918 21.1626 37.777 21.1626 38.842C21.1626 38.842 23.5106 37.994 24.1526 38.418C24.1526 38.418 25.0116 43.973 26.9356 43.973C26.9356 43.973 28.4256 48.887 29.9256 49.528C29.9256 49.528 30.3496 53.159 30.9916 53.8C30.9916 53.8 31.4156 62.355 29.9256 63.845C29.9256 63.845 23.8116 70.352 23.3256 75.214C23.2946 75.566 22.9846 75.804 22.6326 75.762C21.9706 75.669 21.0086 75.421 20.7296 74.748C20.7296 74.748 18.1746 71.117 19.0226 66.41C19.0226 66.41 20.0736 60.102 19.7976 56.213C19.7476 55.504 19.7056 54.796 19.6876 54.085C19.6296 51.798 18.8286 46.136 12.6196 43.113C12.6196 43.113 9.83656 39.916 6.62956 40.982C5.38856 41.396 4.49856 42.348 3.87756 43.372C3.64956 27.203 4.67456 7.92 4.67456 7.92C11.1606 4.651 37.1366 4.651 37.1366 4.651C37.1366 4.651 63.1846 4.651 69.6916 7.92C69.6926 7.925 71.1826 35.825 70.1686 52.645Z" fill="#740001"/>
</svg>
