<svg width="63" height="75" viewBox="0 0 63 75" fill="none" xmlns="http://www.w3.org/2000/svg">
<path d="M26.4994 25.9513C26.4994 28.0319 24.8201 29.7112 22.7395 29.7112C20.754 29.7112 19.117 28.1798 18.9797 26.2154C18.3143 25.4972 17.6912 23.7968 17.6912 23.7968C17.9552 24.0925 18.6311 24.346 19.2543 24.5255C19.2965 24.3988 19.3599 24.2826 19.4127 24.1664C18.9585 23.3849 18.61 22.4344 18.61 22.4344C18.8952 22.8463 19.5288 23.0892 20.1308 23.237C20.8068 22.5928 21.7256 22.1915 22.7395 22.1915C24.8201 22.1915 26.4994 23.8707 26.4994 25.9513Z" fill="black"/>
<path d="M17.1747 21.0012C17.1747 21.0012 23.5495 16.9963 27.5143 21.0646V21.9074C27.5143 21.9074 22.7374 18.8456 17.1747 21.0012Z" fill="black"/>
<path d="M21.4447 49.1283C21.4447 50.6914 20.0422 51.9736 18.3291 51.9736C18.1126 51.9736 17.8971 51.9577 17.6954 51.9187C16.2791 51.6483 15.2008 50.5034 15.2008 49.1252C15.2008 47.9127 16.0499 46.8587 17.2508 46.4827C17.1156 46.2493 17.0343 45.9715 17.0343 45.6705C17.0343 44.8584 17.6416 44.212 18.3703 44.212C19.1117 44.212 19.7053 44.8584 19.7053 45.6705C19.7053 45.9641 19.6239 46.2493 19.4761 46.488C19.7992 46.6094 20.1098 46.7742 20.3653 46.9928C21.0265 47.4966 21.4447 48.2634 21.4447 49.1283Z" stroke="black" stroke-miterlimit="10"/>
<path d="M38.7454 39.2724C38.4106 39.809 38.1244 40.3222 38.1244 40.5123C38.1244 40.9612 34.5377 43.2625 34.5377 43.2625C33.6875 43.4928 31.0599 40.5123 31.0599 40.5123L30.8698 39.2724H38.7454Z" stroke="black" stroke-miterlimit="10"/>
<path d="M34.7806 40.7384L35.6826 42.4916C35.6826 42.4916 35.1017 43.1928 34.5366 43.2615C33.9705 43.3291 33.1499 42.5613 33.1499 42.5613L34.2018 40.8334C33.5956 40.4701 32.8531 39.2714 32.8531 39.2714C32.8531 39.2714 36.0501 38.6504 35.9434 39.2714C35.8589 39.715 35.1598 40.4025 34.7806 40.7384Z" fill="black"/>
<path d="M29.4798 50.7949C29.4798 50.7949 29.6318 50.6988 29.8885 50.6101C30.1462 50.5182 30.5074 50.4306 30.9372 50.3989C31.1506 50.3894 31.3829 50.3767 31.6237 50.421C31.8656 50.4633 32.1148 50.5816 32.3768 50.6935C32.8995 50.9354 33.4741 50.9333 34.0444 50.7358C34.3306 50.6492 34.6115 50.5446 34.8883 50.5119C35.1629 50.4696 35.4332 50.4295 35.693 50.3894C36.2084 50.3038 36.6858 50.3461 37.0924 50.3746C37.4938 50.4126 37.8286 50.4453 38.0651 50.4707C38.2964 50.4929 38.4284 50.4464 38.4369 50.4464L38.5467 50.5193C38.5467 50.5193 38.5341 50.5647 38.5108 50.6502C38.4802 50.7305 38.401 50.8467 38.2964 50.9565C38.0757 51.1889 37.7071 51.4054 37.2656 51.5649C36.822 51.7169 36.3003 51.8342 35.7469 51.7898C35.4702 51.7719 35.1861 51.7433 34.8988 51.7043C34.6126 51.6736 34.3211 51.568 34.0349 51.4709C33.4614 51.2607 32.8943 51.2195 32.3451 51.4085C32.0705 51.492 31.8054 51.5881 31.5572 51.6029C31.3079 51.6219 31.0745 51.5807 30.8601 51.5406C30.4345 51.4487 30.0839 51.3061 29.8431 51.1741C29.6012 51.0452 29.4681 50.9259 29.4681 50.9259L29.4798 50.7949Z" fill="black"/>
<path d="M32.2331 72.3592C30.106 73.1925 30.0342 70.5353 28.9073 72.2684C27.7772 74.0205 24.669 75.1295 23.3066 73.2591C21.884 71.3062 25.7484 69.4971 25.7484 69.4971C25.7484 69.4971 26.3821 68.9468 27.7445 68.8412C29.3498 68.7155 31.1875 68.6722 31.6417 69.1158C31.6839 69.1591 31.7262 69.1897 31.7578 69.2235C31.9374 69.3503 32.0736 69.3503 32.1792 69.2542L32.231 69.3281C32.2331 69.327 32.5542 72.2335 32.2331 72.3592Z" fill="black"/>
<path d="M45.4212 71.7403C43.9024 74.5496 39.2702 71.1911 39.1097 71.3506C38.9618 71.5301 38.5077 72.3159 37.441 72.2029C36.3954 72.0952 36.7122 69.0567 36.7122 69.0567C36.7122 69.0567 36.7777 68.9003 36.9551 68.4631C36.9974 68.3543 37.027 68.2413 37.0924 68.1008C37.9374 67.8094 39.2343 67.4608 40.1236 67.6573C40.2799 67.69 40.4182 67.7418 40.5439 67.8094C42.3203 67.7323 46.941 68.9405 45.4212 71.7403Z" fill="black"/>
<path d="M48.6034 51.3431C48.6034 53.053 47.5757 54.4312 46.3031 54.4312C45.041 54.4312 44.7981 53.5789 44.7981 51.8701C44.7981 51.6948 44.7981 51.8701 44.8203 51.7085C45.7402 51.2068 48.6034 50.7632 48.6034 51.3431Z" stroke="black" stroke-miterlimit="10"/>
<path d="M15.8314 47.4258L0.121262 29.7165C0.121262 29.7165 -0.637047 27.9179 1.63894 29.0426L17.2519 46.4859L15.8314 47.4258Z" fill="black"/>
<path d="M20.1372 51.8796L22.5368 53.5652C22.5368 53.5652 24.084 54.2791 24.0534 52.4721L21.62 50.2457L20.1372 51.8796Z" fill="black" stroke="black" stroke-width="1.2768" stroke-miterlimit="10"/>
<path d="M31.8256 34.0498C31.8256 34.0498 32.267 34.2389 32.8405 34.4469C32.981 34.4934 33.1341 34.543 33.2999 34.5969C33.4541 34.6571 33.6295 34.6698 33.7889 34.73C34.1216 34.7775 34.4627 34.862 34.8018 34.8303C35.1366 34.8514 35.4745 34.769 35.8125 34.7162C35.9677 34.655 36.142 34.618 36.3015 34.5789C36.4557 34.524 36.6088 34.4628 36.7609 34.4173C37.0577 34.3307 37.2995 34.2029 37.4875 34.1459C37.6808 34.0804 37.797 34.0498 37.797 34.0498C37.797 34.0498 37.759 34.1596 37.6692 34.3434C37.5699 34.5177 37.4548 34.8039 37.2066 35.0489C36.9859 35.3288 36.6564 35.5907 36.2519 35.821C36.0375 35.9065 35.8167 36.0227 35.5706 36.0808C35.3235 36.1135 35.0679 36.1895 34.8092 36.1779C34.5504 36.1726 34.298 36.1462 34.0509 36.085C33.7995 36.0512 33.5883 35.9181 33.3686 35.8379C32.9567 35.6171 32.624 35.352 32.3969 35.0753C31.9206 34.5388 31.8256 34.0498 31.8256 34.0498Z" fill="black"/>
<path d="M39.1096 59.5789C37.9985 59.9063 36.6065 60.2548 35.1712 60.4776C34.4203 60.6033 33.6525 60.6878 32.9206 60.7089C31.3797 60.7744 29.9317 60.597 28.9083 59.9823C28.9506 59.4849 29.0034 58.98 29.0667 58.471C29.2357 56.9269 29.4575 55.3987 29.7321 54.089C29.7321 54.0669 29.7532 54.0362 29.7532 54.0172C29.8483 53.5842 29.9433 53.1712 30.049 52.8048C32.3302 53.0973 36.2369 53.5008 38.2647 53.0266C38.2953 53.4458 38.3386 53.8715 38.3798 54.2929C38.3798 54.3573 38.3904 54.4175 38.3904 54.4724C38.4622 55.1388 38.5403 55.781 38.6248 56.4273C38.6671 56.7452 38.7083 57.0631 38.7494 57.3683C38.7928 57.6873 38.8339 57.9936 38.8889 58.2999C38.9607 58.7318 39.0357 59.1575 39.1096 59.5789Z" stroke="black" stroke-miterlimit="10"/>
<path d="M32.9207 60.7079C32.9207 62.9332 32.7306 66.4512 31.76 69.2214C31.7284 69.1908 31.6861 69.157 31.6439 69.1137C31.1897 68.6701 29.352 68.7134 27.7467 68.8391V67.2982C28.1692 67.3204 28.4332 67.3267 28.4332 67.3267C28.4332 67.3267 28.5388 63.8224 28.9085 59.976C29.9319 60.5928 31.3788 60.7723 32.9207 60.7079Z" stroke="black" stroke-miterlimit="10"/>
<path d="M40.1236 67.6573C39.2344 67.4577 37.9374 67.8062 37.0925 68.1009C37.027 68.2371 36.9975 68.3543 36.9552 68.4599C36.3194 67.2654 35.5812 63.1581 35.1714 60.4745C36.6067 60.2537 38.0018 59.9052 39.1097 59.5746C39.396 61.1694 39.7519 62.5741 40.1764 63.6862C40.2388 65.3137 40.1955 66.8757 40.1236 67.6573Z" stroke="black" stroke-miterlimit="10"/>
<path d="M41.39 21.9074V21.0646C45.3558 16.9974 51.7307 21.0012 51.7307 21.0012C46.1701 18.8456 41.3932 21.9074 41.39 21.9074Z" fill="black"/>
<path d="M42.2612 25.8478C42.2612 27.9284 43.9405 29.6077 46.0232 29.6077C48.0088 29.6077 49.6479 28.0763 49.7852 26.1119C50.4516 25.3937 51.0747 23.6933 51.0747 23.6933C50.8107 23.989 50.1337 24.2425 49.5116 24.422C49.4705 24.2953 49.406 24.1791 49.3532 24.0629C49.8116 23.2814 50.1591 22.3309 50.1591 22.3309C49.8728 22.7428 49.2413 22.9857 48.6403 23.1335C47.9633 22.4893 47.0445 22.088 46.0306 22.088C43.9394 22.088 42.2612 23.7672 42.2612 25.8478Z" fill="black"/>
<path d="M56.14 24.7938V31.1729C56.14 35.6298 52.5068 39.264 48.0499 39.264H20.7487C16.2918 39.264 12.6481 35.6298 12.6481 31.1729V17.8021C12.6481 17.8021 17.8126 14.9083 18.2139 15.8377L20.3157 12.0462L20.5903 16.144C20.5903 16.144 29.6308 16.6087 29.6731 15.4575C29.7153 14.2957 30.0427 12.8699 30.0427 12.8699L31.2573 15.4786C31.2573 15.4786 34.3518 16.4714 35.0393 15.9116C35.7163 15.3519 36.4007 15.1829 36.8569 15.8588C37.3111 16.5453 43.837 16.7565 43.4578 13.3346C43.4578 13.3346 44.6291 15.2779 44.2066 15.6898C43.7852 16.1017 48.1788 16.6826 48.1788 15.8377L48.9286 13.1551L50.798 16.5876C50.798 16.5876 52.0643 17.7282 52.8036 16.3235C52.8036 16.3235 54.3773 16.6192 54.4829 16.9995C54.598 17.3797 53.056 23.706 56.14 24.7938Z" stroke="black" stroke-miterlimit="10"/>
<path d="M30.2961 52.0106C30.2011 52.2524 30.1377 52.5165 30.0532 52.8027C29.937 53.1734 29.8525 53.5832 29.7469 54.0162C29.7469 54.0384 29.7364 54.0595 29.7364 54.0806C29.4512 55.3902 29.24 56.9206 29.0604 58.4636C28.9971 58.9695 28.9443 59.4764 28.902 59.9739C28.5324 63.8193 28.4267 67.3246 28.4267 67.3246C28.4267 67.3246 28.1627 67.313 27.7403 67.3024C27.1277 67.2486 26.156 67.1767 25.2794 67.0162C24.6352 66.8895 24.0226 66.73 23.6424 66.4881C22.4595 65.7383 26.3778 54.3742 26.8637 53.129C28.5324 48.9044 26.0716 46.8566 26.0716 46.8566C26.0716 46.8566 20.6535 56.2974 18.2984 52.865C18.0554 52.5164 17.8548 52.1986 17.6858 51.9155C17.8865 51.9472 18.1188 51.9683 18.3195 51.9683C20.041 51.9683 21.4457 50.6904 21.4457 49.1167C21.4457 48.2613 21.0232 47.5008 20.3684 46.9939L20.7697 46.5725C20.7697 46.5725 21.1711 45.6843 21.7414 44.5331C22.8186 42.368 24.4979 39.264 25.2583 39.264H31.6374C31.6374 39.2735 31.8064 47.6286 30.2961 52.0106Z" fill="black" stroke="black" stroke-miterlimit="10"/>
<path d="M48.8537 51.7465C48.314 50.4369 45.3473 51.7993 44.3535 52.2968C44.1623 52.4119 44.0261 52.4763 44.0261 52.4763C44.1824 51.3557 42.3341 45.454 41.5959 45.7909C40.8576 46.1289 40.9527 49.1822 40.9717 50.9766C41.0139 54.1334 43.348 58.3696 43.348 58.3696C43.348 58.3696 47.4997 64.9705 44.3936 65.8354C44.3936 65.8354 40.9833 65.8249 40.6549 65.6876C39.9895 65.4014 39.5776 64.7265 39.1013 63.4908C38.6799 62.3808 38.8911 61.9805 38.6038 60.3868C38.5331 59.9644 38.9545 58.7287 38.8805 58.2851C38.8288 57.9894 38.7855 57.6725 38.7443 57.3652C38.701 57.0473 38.6598 56.7421 38.6165 56.4157C38.5331 55.781 38.4591 55.1378 38.3831 54.4608C38.3831 54.4069 38.3725 54.3457 38.3725 54.2813C38.3303 53.8599 37.7188 52.1278 37.6882 51.7053C37.065 44.8932 37.6776 39.265 37.6776 39.265H41.9022C43.8993 40.6496 44.0683 41.6931 45.0928 43.2773C45.2723 43.5635 45.4835 43.8793 45.7476 44.2078C46.9516 45.7381 48.6393 49.5424 48.9371 51.2216C49.0639 51.9261 49.0427 52.2112 48.8537 51.7465Z" fill="black" stroke="black" stroke-miterlimit="10"/>
<path d="M61.4429 37.2668C61.0638 37.9005 59.8893 39.4213 61.1567 41.6287C62.4346 43.8255 58.9599 44.005 59.3613 45.3981C59.752 46.7827 57.682 43.4769 56.5836 44.9238C55.4852 46.3813 52.8871 44.0472 51.7465 43.2752C50.6058 42.5053 49.6342 42.989 48.6002 43.7811C47.5747 44.5732 47.1227 43.686 46.5418 43.1157C46.0137 42.6088 45.2523 43.158 45.0949 43.272C44.0704 41.6878 43.9015 40.6444 41.9043 39.2587H48.05C52.5069 39.2587 56.14 35.6256 56.14 31.1687V24.7896C53.0561 23.7017 54.5981 17.3755 54.4819 16.9952C54.3763 16.615 52.8026 16.3193 52.8026 16.3193C52.0633 17.724 50.797 16.5834 50.797 16.5834L48.9266 13.1509L48.1767 15.8335C48.1767 16.6784 43.7832 16.0975 44.2056 15.6856C44.626 15.2737 43.4547 13.3304 43.4547 13.3304C43.8339 16.7523 37.309 16.5411 36.8538 15.8546C36.3997 15.1787 35.7132 15.3477 35.0362 15.9074C34.3518 16.4672 31.2552 15.4744 31.2552 15.4744L30.0407 12.8657C30.0407 12.8657 29.7133 14.2915 29.671 15.4533C29.6288 16.6045 20.5882 16.1398 20.5882 16.1398L20.3136 12.0419L18.2119 15.8335C17.8106 14.9041 12.646 17.7979 12.646 17.7979V31.1687C12.646 35.6256 16.2897 39.2587 20.7466 39.2587H25.2563C24.4959 39.2587 22.8167 42.3638 21.7394 44.5288C21.2853 44.3715 20.6833 44.117 19.9017 43.7146C16.5432 41.9814 15.8039 44.8552 14.2514 44.7063C12.6988 44.55 10.6816 45.7413 10.6816 45.7413C5.81279 46.8819 6.50984 40.1744 5.80223 38.0399C5.08405 35.9171 7.47093 30.404 7.35476 30.3512C7.23858 30.309 7.77721 27.8059 7.42869 27.1405C7.08016 26.4857 8.04125 24.2784 8.62213 22.916C9.203 21.5536 10.2908 20.0116 9.41423 19.23C8.52707 18.4485 8.92841 18.9977 10.1324 14.8787C11.347 10.7598 8.70662 13.4952 12.7939 6.68309C16.8706 -0.139584 27.5482 1.08554 27.5482 1.08554C27.5482 1.08554 30.4737 1.508 31.5626 1.84596C32.6493 2.18393 34.9306 2.02551 34.9306 2.02551C50.4664 -0.815514 52.3569 4.59193 55.3986 7.42239C58.4403 10.2634 59.4753 13.6747 59.8239 14.2873C60.1597 14.8893 58.736 16.7587 59.1268 17.2656C59.5165 17.7726 59.77 18.6386 59.8872 20.5608C59.9939 22.483 59.5281 22.916 59.4859 25.1339C59.4436 27.3518 61.4714 29.6964 61.2496 32.5902C61.0405 35.5031 61.8221 36.6437 61.4429 37.2668Z" stroke="black" stroke-miterlimit="10"/>
</svg>
