<svg width="75" height="90" viewBox="0 0 75 90" fill="none" xmlns="http://www.w3.org/2000/svg">
<path d="M73.4438 3.654C66.1838 -2.38419e-07 37.1288 0 37.1288 0C37.1288 0 8.16178 -2.38419e-07 0.921778 3.654C0.921778 3.654 -1.15222 42.571 0.921778 59.595C1.12278 61.254 1.62478 62.874 2.38078 64.453C9.31278 79.101 37.1298 90.001 37.1298 90.001C37.1298 90.001 65.7628 78.813 72.2398 63.878C72.8558 62.48 73.2638 61.054 73.4438 59.595C75.5188 42.571 73.4438 3.654 73.4438 3.654ZM7.25278 57.239C7.76778 56.717 10.3508 55.687 10.3508 55.687H7.76778C7.76778 55.687 7.76778 53.097 8.79878 53.097C8.79878 53.097 6.73078 52.067 4.66378 53.097C4.66378 53.097 4.66378 52.582 5.18578 52.067L4.14878 51.726C4.09478 50.702 4.04878 49.645 4.00778 48.554C5.38578 48.735 7.90878 49.103 8.28378 49.477C8.79878 49.999 7.76878 47.931 7.76878 47.931C7.76878 47.931 11.3888 49.999 12.9418 49.999C12.9418 49.999 12.4198 49.999 12.4198 48.962H13.4568L17.5918 54.134V54.649C17.5918 54.649 13.4568 58.791 12.4188 58.791C11.3888 58.791 8.79878 58.791 8.79878 58.791C8.79878 58.791 6.73078 57.754 7.25278 57.239ZM51.7238 74.818C51.2088 74.818 52.2388 72.75 52.2388 72.75C51.7238 72.235 47.5878 72.75 47.5878 72.75C47.5878 72.235 48.1028 71.198 48.1028 71.198C46.5508 70.683 43.9678 73.272 43.9678 73.272C42.4158 73.787 41.8998 73.272 39.3108 72.75C36.7278 72.235 35.1758 71.198 32.0708 71.198C28.9728 71.198 25.8678 72.235 25.8678 72.235C25.8678 72.235 18.1128 71.198 17.5908 70.683C17.0758 70.168 17.0758 69.652 17.0758 69.652C18.1128 69.13 19.1438 69.13 19.1438 69.13C18.6288 68.615 16.0388 67.578 16.0388 67.578C16.0388 66.548 19.1438 64.48 19.1438 64.48C16.0388 63.958 12.4188 66.032 12.4188 66.032L11.3888 65.51L10.8738 63.958C11.3888 62.928 20.1818 62.412 20.1818 62.412C20.1818 62.412 18.1138 61.89 18.6298 61.375C19.1448 60.86 22.7648 61.375 22.7648 61.375L22.2498 60.338C22.7648 59.308 25.8698 59.308 25.8698 59.308C27.4218 64.48 45.5228 68.101 50.6888 68.101C55.8618 68.101 54.8308 69.653 55.3458 71.199C55.8588 72.75 51.7238 74.818 51.7238 74.818ZM69.6908 58.089C69.2228 61.937 66.9208 65.577 63.7418 68.869C63.3738 68.053 63.0998 67.216 63.0998 66.547C63.0998 64.479 64.2658 62.338 65.1678 60.337C67.9368 54.189 67.2618 49.831 62.3238 44.164C58.2148 39.453 46.5558 39.742 42.9358 38.189C40.1788 37.011 37.5048 33.451 36.6348 31.858C36.2798 31.209 36.1868 30.433 36.4738 29.757C36.7278 29.141 37.2098 28.666 37.7318 28.218C39.8458 26.431 44.2958 25.863 45.6408 25.729C45.9018 25.702 46.1428 25.588 46.3238 25.401L47.2208 24.511C47.4548 24.27 47.5888 23.956 47.5888 23.621V22.256C47.5888 21.821 47.3548 21.426 46.9728 21.219L42.3018 18.67C42.0538 18.536 41.8998 18.275 41.8998 17.994V17.9C41.8998 17.599 41.7458 17.318 41.4918 17.157L36.2118 13.798C36.2118 13.798 35.6498 12.292 36.0848 10.994C36.1388 10.84 36.0178 10.673 35.8508 10.659C34.9808 10.612 32.7798 10.666 32.1708 12.405C32.0908 12.626 31.8828 12.78 31.6488 12.807C30.5178 12.927 27.4268 13.322 26.5968 13.978C26.3828 14.145 26.0948 14.179 25.8408 14.078C24.8768 13.717 22.8768 13.161 21.7318 14.312C20.2868 15.757 19.7378 16.306 20.5068 18.467C20.6208 18.782 20.5668 19.143 20.3658 19.417C18.9208 21.384 13.8548 28.223 12.0418 32.004C11.6138 32.894 11.4128 33.878 11.4258 34.868C11.4528 36.521 11.2588 39.913 9.31778 40.69C9.31778 40.69 7.73178 41.874 3.87078 42.865C3.67278 26.806 4.67578 7.923 4.67578 7.923C11.1598 4.658 37.1358 4.658 37.1358 4.658C37.1358 4.658 63.1858 4.658 69.6898 7.923C69.6898 7.923 71.5568 42.819 69.6908 58.089Z" fill="#FFD800"/>
</svg>
