<svg width="68" height="68" viewBox="0 0 68 68" fill="none" xmlns="http://www.w3.org/2000/svg">
<g opacity="0.2" filter="url(#filter0_d_12_10)">
<path d="M41 42H37C36.8687 42 36.7386 42.0258 36.6173 42.076C36.4959 42.1263 36.3857 42.2 36.2928 42.2928C36.2 42.3857 36.1263 42.4959 36.076 42.6173C36.0258 42.7386 36 42.8687 36 43C36 45.6826 36 48 39 48C42 48 42 45.6826 42 43C42 42.8687 41.9742 42.7386 41.924 42.6173C41.8737 42.4959 41.8 42.3857 41.7072 42.2928C41.6143 42.2 41.5041 42.1263 41.3827 42.076C41.2614 42.0258 41.1313 42 41 42ZM39 46C38.2261 46 38.041 46 38.0068 44H39.9932C39.959 46 39.7739 46 39 46Z" fill="white"/>
<path d="M38 30C37.3411 30.0655 36.7141 30.316 36.1915 30.7225C35.6688 31.1291 35.2719 31.6753 35.0464 32.2979C34.5263 33.5089 34.3619 34.8431 34.5726 36.1442C34.7832 37.4453 35.3602 38.6594 36.2358 39.6445C36.3296 39.7559 36.4466 39.8454 36.5786 39.9068C36.7106 39.9682 36.8544 40 37 40H41C41.227 40 41.4473 39.9228 41.6246 39.781C41.8019 39.6392 41.9257 39.4412 41.9756 39.2197C42.3376 37.9112 42.4088 36.5393 42.1842 35.2003C41.9597 33.8613 41.4448 32.5876 40.6758 31.4687C40.3699 31.0375 39.9702 30.6813 39.5067 30.4269C39.0432 30.1725 38.528 30.0265 38 30ZM40.1689 38H37.4863C36.9624 37.3173 36.6285 36.5082 36.5185 35.6547C36.4084 34.8012 36.5262 33.9338 36.8599 33.1406C37.208 32.3916 37.6968 32 38 32C38.226 32.034 38.4421 32.1157 38.6342 32.2396C38.8262 32.3635 38.9897 32.5268 39.1138 32.7188C40.1482 34.2711 40.5275 36.1693 40.1689 38Z" fill="white"/>
<path d="M31 32H27C26.8687 32 26.7386 32.0258 26.6173 32.076C26.4959 32.1263 26.3857 32.2 26.2928 32.2928C26.2 32.3857 26.1263 32.4959 26.0761 32.6173C26.0258 32.7386 26 32.8687 26 33C26 35.6826 26 38 29 38C32 38 32 35.6826 32 33C32 32.8687 31.9742 32.7386 31.9239 32.6173C31.8737 32.4959 31.8 32.3857 31.7072 32.2928C31.6143 32.2 31.5041 32.1263 31.3827 32.076C31.2614 32.0258 31.1313 32 31 32ZM29 36C28.2261 36 28.041 36 28.0068 34H29.9932C29.959 36 29.7739 36 29 36Z" fill="white"/>
<path d="M30 20C29.4719 20.0265 28.9568 20.1725 28.4933 20.4269C28.0298 20.6813 27.6301 21.0375 27.3242 21.4688C26.5552 22.5876 26.0403 23.8613 25.8158 25.2003C25.5912 26.5393 25.6624 27.9112 26.0244 29.2197C26.0743 29.4412 26.198 29.6392 26.3753 29.781C26.5526 29.9228 26.7729 30 27 30H31C31.1456 30 31.2894 29.9682 31.4214 29.9068C31.5534 29.8454 31.6704 29.7559 31.7641 29.6445C32.6398 28.6594 33.2167 27.4453 33.4274 26.1442C33.638 24.8431 33.4737 23.5089 32.9536 22.2978C32.7281 21.6753 32.3311 21.1291 31.8085 20.7225C31.2859 20.316 30.6589 20.0655 30 20ZM30.5136 28H27.831C27.4725 26.1693 27.8517 24.2711 28.8862 22.7188C29.0103 22.5268 29.1738 22.3635 29.3658 22.2396C29.5578 22.1157 29.774 22.034 30 22C30.3032 22 30.792 22.3916 31.1401 23.1406C31.4738 23.9339 31.5915 24.8012 31.4815 25.6547C31.3715 26.5082 31.0376 27.3173 30.5136 28Z" fill="white"/>
<path d="M41 22H37C36.8687 22 36.7386 22.0258 36.6173 22.0761C36.4959 22.1263 36.3857 22.2 36.2928 22.2928C36.2 22.3857 36.1263 22.4959 36.076 22.6173C36.0258 22.7386 36 22.8687 36 23C36 25.6826 36 28 39 28C42 28 42 25.6826 42 23C42 22.8687 41.9742 22.7386 41.924 22.6173C41.8737 22.4959 41.8 22.3857 41.7072 22.2928C41.6143 22.2 41.5041 22.1263 41.3827 22.0761C41.2614 22.0258 41.1313 22 41 22ZM39 26C38.2261 26 38.041 26 38.0068 24H39.9932C39.959 26 39.7739 26 39 26Z" fill="white"/>
<path d="M37 20H41C41.227 20 41.4473 19.9228 41.6246 19.781C41.8019 19.6392 41.9257 19.4412 41.9756 19.2197C42.3376 17.9112 42.4088 16.5393 42.1842 15.2003C41.9597 13.8613 41.4448 12.5876 40.6758 11.4687C40.3699 11.0375 39.9702 10.6813 39.5067 10.4269C39.0432 10.1725 38.528 10.0265 38 10C37.3411 10.0655 36.7141 10.316 36.1915 10.7225C35.6688 11.1291 35.2719 11.6753 35.0464 12.2978C34.5263 13.5089 34.3619 14.8431 34.5726 16.1442C34.7832 17.4453 35.3602 18.6594 36.2358 19.6445C36.3296 19.7559 36.4466 19.8454 36.5786 19.9068C36.7106 19.9682 36.8544 20 37 20ZM36.8599 13.1406C37.208 12.3916 37.6968 12 38 12C38.226 12.034 38.4421 12.1157 38.6342 12.2396C38.8262 12.3635 38.9897 12.5268 39.1138 12.7188C40.1482 14.2711 40.5275 16.1693 40.1689 18H37.4863C36.9624 17.3173 36.6285 16.5082 36.5184 15.6547C36.4084 14.8012 36.5262 13.9339 36.8599 13.1406Z" fill="white"/>
<path d="M63.4473 9.10568L45.4473 0.105684C45.3198 0.0418952 45.1802 0.00610482 45.0378 0.000714938C44.8954 -0.00467494 44.7535 0.0204604 44.6216 0.074434L23.0415 8.90255L5.44727 0.105684C5.2948 0.0294658 5.12537 -0.00651474 4.95508 0.00115856C4.78479 0.00883185 4.61929 0.0599043 4.47429 0.149527C4.32929 0.239149 4.2096 0.364347 4.12659 0.513233C4.04358 0.662119 4.00001 0.829751 4 1.00021V51.0002C4.00008 51.1936 4.05619 51.3829 4.16156 51.5451C4.26694 51.7074 4.41705 51.8356 4.59375 51.9143L22.5938 59.9143C22.8303 60.0196 23.0986 60.0287 23.3417 59.9397L44.9624 52.0783L62.5938 59.9143C62.746 59.982 62.9128 60.0106 63.0789 59.9974C63.2451 59.9843 63.4053 59.9298 63.545 59.839C63.6848 59.7482 63.7996 59.6239 63.879 59.4774C63.9585 59.3309 64.0001 59.1669 64 59.0002V10.0002C64 9.8145 63.9483 9.63246 63.8506 9.47447C63.753 9.31648 63.6134 9.18879 63.4473 9.10568ZM24 10.6717L44 2.48996V50.3001L24 57.5722V10.6717ZM6 2.61837L22 10.6184V57.461L6 50.3508V2.61837ZM62 57.4612L46 50.3501V2.61862L62 10.6184V57.4612Z" fill="white"/>
</g>
<defs>
<filter id="filter0_d_12_10" x="0" y="0" width="68" height="68.0006" filterUnits="userSpaceOnUse" color-interpolation-filters="sRGB">
<feFlood flood-opacity="0" result="BackgroundImageFix"/>
<feColorMatrix in="SourceAlpha" type="matrix" values="0 0 0 0 0 0 0 0 0 0 0 0 0 0 0 0 0 0 127 0" result="hardAlpha"/>
<feOffset dy="4"/>
<feGaussianBlur stdDeviation="2"/>
<feComposite in2="hardAlpha" operator="out"/>
<feColorMatrix type="matrix" values="0 0 0 0 0 0 0 0 0 0 0 0 0 0 0 0 0 0 0.25 0"/>
<feBlend mode="normal" in2="BackgroundImageFix" result="effect1_dropShadow_12_10"/>
<feBlend mode="normal" in="SourceGraphic" in2="effect1_dropShadow_12_10" result="shape"/>
</filter>
</defs>
</svg>
