<svg width="35" height="90" viewBox="0 0 35 90" fill="none" xmlns="http://www.w3.org/2000/svg">
<path fill-rule="evenodd" clip-rule="evenodd" d="M26.4706 90C27.9325 90 29.1176 88.8149 29.1176 87.3529V63.5294H31.7647C33.2266 63.5294 34.4118 62.3443 34.4118 60.8824V39.702C34.4118 33.858 29.6723 29.1176 23.8274 29.1176H10.5844C4.74033 29.1176 0 33.8571 0 39.702V60.8824C0 62.3443 1.18513 63.5294 2.64706 63.5294H5.29412V87.3529C5.29412 88.8149 6.47925 90 7.94118 90H11.9053C13.3708 90 14.5588 88.8215 14.5588 87.3518V67.4913C14.5588 66.7654 15.157 66.1765 15.8948 66.1765H18.517C19.2661 66.1765 19.8529 66.7651 19.8529 67.4913V87.3518C19.8529 88.8143 21.036 90 22.5065 90H26.4706ZM17.2059 23.8235C10.6272 23.8235 5.29412 18.4905 5.29412 11.9118C5.29412 5.33308 10.6272 0 17.2059 0C23.7846 0 29.1176 5.33308 29.1176 11.9118C29.1176 18.4905 23.7846 23.8235 17.2059 23.8235Z" fill="black"/>
</svg>
