<svg width="58" height="68" viewBox="0 0 58 68" fill="none" xmlns="http://www.w3.org/2000/svg">
<g opacity="0.2" filter="url(#filter0_d_12_49)">
<path d="M20.6848 12.9999C19.6959 12.9999 18.7292 13.2931 17.907 13.8425C17.0847 14.3919 16.4439 15.1728 16.0654 16.0864C15.687 17.0001 15.588 18.0054 15.7809 18.9753C15.9738 19.9452 16.45 20.8361 17.1493 21.5354C17.8485 22.2347 18.7395 22.7109 19.7094 22.9038C20.6793 23.0967 21.6846 22.9977 22.5982 22.6193C23.5119 22.2408 24.2928 21.6 24.8422 20.7777C25.3916 19.9555 25.6848 18.9888 25.6848 17.9999C25.6833 16.6743 25.156 15.4034 24.2186 14.4661C23.2813 13.5287 22.0104 13.0014 20.6848 12.9999ZM20.6848 20.9999C20.0915 20.9999 19.5115 20.8239 19.0181 20.4943C18.5248 20.1646 18.1402 19.6961 17.9132 19.1479C17.6861 18.5997 17.6267 17.9965 17.7425 17.4146C17.8582 16.8326 18.1439 16.2981 18.5635 15.8785C18.9831 15.459 19.5176 15.1733 20.0995 15.0575C20.6815 14.9418 21.2847 15.0012 21.8329 15.2282C22.381 15.4553 22.8496 15.8398 23.1792 16.3332C23.5089 16.8265 23.6848 17.4065 23.6848 17.9999C23.6839 18.7952 23.3676 19.5578 22.8052 20.1202C22.2428 20.6826 21.4802 20.999 20.6848 20.9999Z" fill="white"/>
<path d="M20.6848 18.9999C21.2371 18.9999 21.6848 18.5521 21.6848 17.9999C21.6848 17.4476 21.2371 16.9999 20.6848 16.9999C20.1325 16.9999 19.6848 17.4476 19.6848 17.9999C19.6848 18.5521 20.1325 18.9999 20.6848 18.9999Z" fill="white"/>
<path d="M36.6848 22.9999C37.6737 22.9999 38.6404 22.7066 39.4627 22.1572C40.2849 21.6078 40.9258 20.8269 41.3042 19.9133C41.6826 18.9997 41.7817 17.9943 41.5887 17.0244C41.3958 16.0545 40.9196 15.1636 40.2203 14.4643C39.5211 13.7651 38.6302 13.2889 37.6603 13.0959C36.6904 12.903 35.685 13.002 34.7714 13.3805C33.8578 13.7589 33.0769 14.3998 32.5275 15.222C31.9781 16.0443 31.6848 17.011 31.6848 17.9999C31.6864 19.3255 32.2137 20.5963 33.151 21.5337C34.0883 22.471 35.3592 22.9983 36.6848 22.9999ZM36.6848 14.9999C37.2782 14.9999 37.8582 15.1758 38.3515 15.5055C38.8449 15.8351 39.2294 16.3036 39.4565 16.8518C39.6835 17.4 39.7429 18.0032 39.6272 18.5851C39.5114 19.1671 39.2257 19.7016 38.8061 20.1212C38.3866 20.5407 37.852 20.8265 37.2701 20.9422C36.6881 21.058 36.0849 20.9986 35.5368 20.7715C34.9886 20.5444 34.5201 20.1599 34.1904 19.6666C33.8608 19.1732 33.6848 18.5932 33.6848 17.9999C33.6857 17.2045 34.002 16.4419 34.5645 15.8795C35.1269 15.3171 35.8894 15.0007 36.6848 14.9999Z" fill="white"/>
<path d="M36.6848 18.9999C37.2371 18.9999 37.6848 18.5521 37.6848 17.9999C37.6848 17.4476 37.2371 16.9999 36.6848 16.9999C36.1325 16.9999 35.6848 17.4476 35.6848 17.9999C35.6848 18.5521 36.1325 18.9999 36.6848 18.9999Z" fill="white"/>
<path d="M39.1261 49.9648L40.8527 52.5546C40.9305 52.6714 41.032 52.7705 41.1506 52.8454C41.2692 52.9204 41.4023 52.9695 41.5412 52.9896C41.5887 52.9964 41.6367 52.9998 41.6847 52.9999C41.9188 52.9998 42.1454 52.9177 42.3253 52.7679C46.8673 48.9823 54.713 38.6878 53.172 30.9222C52.4933 27.5049 50.1398 25.0155 46.2035 23.4881C47.0802 21.983 47.5834 20.2897 47.6709 18.55C47.7585 16.8104 47.4278 15.0751 46.7067 13.4895C50.3148 10.7674 51.4164 6.03289 49.633 0.68349C49.5766 0.514545 49.4761 0.363724 49.3419 0.246616C49.2077 0.129508 49.0447 0.0503627 48.8696 0.0173595C48.6946 -0.0156437 48.514 -0.0013069 48.3463 0.0588882C48.1787 0.119083 48.0302 0.222952 47.9162 0.35976C46.5441 2.00624 43.9328 2.50676 40.9083 3.08583C39.6312 3.3304 38.2694 3.59297 36.9108 3.9742C34.4247 2.51616 31.5617 1.82902 28.6847 1.99986C25.8077 1.82901 22.9447 2.51614 20.4586 3.97416C19.1 3.59293 17.7382 3.33036 16.4611 3.08579C13.4367 2.5067 10.8253 2.00621 9.45327 0.35972C9.33922 0.222912 9.19071 0.119043 9.02309 0.0588482C8.85546 -0.0013469 8.6748 -0.0156837 8.49978 0.0173195C8.32476 0.0503227 8.16172 0.129468 8.02753 0.246576C7.89334 0.363684 7.79285 0.514505 7.73647 0.68345C5.95303 6.03286 7.05458 10.7674 10.6627 13.4895C9.94157 15.075 9.61091 16.8103 9.69846 18.55C9.78601 20.2896 10.2892 21.983 11.1659 23.4881C7.22964 25.0155 4.87613 27.5049 4.19742 30.9222C2.65642 38.6878 10.5021 48.9823 15.0441 52.7679C15.224 52.9177 15.4506 52.9997 15.6847 52.9999C15.7327 52.9998 15.7807 52.9964 15.8283 52.9896C15.9671 52.9695 16.1002 52.9204 16.2189 52.8454C16.3375 52.7705 16.439 52.6714 16.5167 52.5546L18.2433 49.9648C19.5111 51.2574 20.9542 52.3655 22.5304 53.2565C22.2089 53.892 21.6293 54.0184 20.3947 54.1913C18.5529 54.4486 16.0304 54.8011 14.7365 58.6835C14.6945 58.8081 14.6775 58.9398 14.6865 59.071C14.6955 59.2022 14.7303 59.3304 14.7889 59.4481C14.8475 59.5659 14.9287 59.6709 15.028 59.7572C15.1273 59.8435 15.2426 59.9093 15.3674 59.9509C15.4921 59.9926 15.6239 60.0092 15.7551 59.9998C15.8863 59.9904 16.0143 59.9552 16.1319 59.8963C16.2495 59.8373 16.3542 59.7557 16.4402 59.6562C16.5262 59.5567 16.5917 59.4412 16.633 59.3163C17.3983 57.021 18.5607 56.5274 19.9232 56.2865L18.7902 58.5526C18.6726 58.7897 18.6537 59.0638 18.7378 59.3148C18.8219 59.5658 19.0021 59.7732 19.2389 59.8916C19.4756 60.0099 19.7496 60.0296 20.0009 59.9463C20.2521 59.863 20.4601 59.6835 20.5792 59.4471L22.3978 55.81C22.8212 55.6769 23.2123 55.4574 23.5466 55.1655C23.8808 54.8736 24.1508 54.5155 24.3396 54.1139C25.7194 54.6797 27.1935 54.9803 28.6847 54.9999C30.1759 54.9803 31.65 54.6797 33.0298 54.1139C33.2186 54.5155 33.4886 54.8735 33.8229 55.1655C34.1571 55.4574 34.5482 55.6769 34.9716 55.81L36.7902 59.4471C36.9093 59.6835 37.1173 59.863 37.3685 59.9463C37.6198 60.0296 37.8938 60.0099 38.1306 59.8915C38.3673 59.7732 38.5475 59.5658 38.6316 59.3148C38.7157 59.0638 38.6969 58.7897 38.5792 58.5526L37.4462 56.2865C38.8087 56.5274 39.9711 57.021 40.7365 59.3163C40.7777 59.4411 40.8432 59.5567 40.9292 59.6562C41.0152 59.7557 41.12 59.8373 41.2375 59.8963C41.3551 59.9552 41.4831 59.9904 41.6143 59.9998C41.7455 60.0092 41.8773 59.9926 42.002 59.9509C42.1268 59.9093 42.2421 59.8435 42.3414 59.7572C42.4407 59.6709 42.5219 59.5659 42.5805 59.4481C42.6392 59.3304 42.674 59.2022 42.6829 59.071C42.6919 58.9398 42.6749 58.8081 42.6329 58.6834C41.339 54.8011 38.8165 54.4486 36.9747 54.1913C35.7401 54.0183 35.1605 53.892 34.839 53.2565C36.4152 52.3655 37.8584 51.2574 39.1261 49.9648ZM51.2101 31.3119C52.4826 37.724 46.0656 46.5794 41.881 50.4911L40.5167 48.4452L40.4872 48.4648C40.6019 48.3266 40.7186 48.1917 40.8312 48.0497C45.6468 41.9695 47.4979 33.8631 46.0267 25.5721C48.9567 26.848 50.7058 28.7691 51.2101 31.3119ZM28.6847 21.9999C27.8893 22.0007 27.1268 22.3171 26.5644 22.8795C26.0019 23.4419 25.6856 24.2045 25.6847 24.9999C25.6848 25.1271 25.709 25.2532 25.756 25.3714L25.7736 25.4155C24.2786 26.4503 22.5029 27.0032 20.6847 26.9999C19.1506 26.9998 17.642 26.6077 16.302 25.8606C14.9621 25.1135 13.8354 24.0363 13.0289 22.7313C12.2224 21.4263 11.7629 19.9368 11.6939 18.4043C11.625 16.8717 11.949 15.347 12.6351 13.9748C13.3211 12.6027 14.3466 11.4287 15.614 10.5643C16.8815 9.69999 18.3488 9.17397 19.8767 9.03621C21.4046 8.89846 22.9424 9.15356 24.344 9.77729C25.7456 10.401 26.9645 11.3727 27.8849 12.6L27.8957 12.6085C27.9882 12.73 28.1076 12.8285 28.2444 12.8963C28.3813 12.9641 28.532 12.9994 28.6847 12.9994C28.8375 12.9994 28.9881 12.9641 29.125 12.8963C29.2619 12.8285 29.3812 12.73 29.4738 12.6085L29.4845 12.6C30.5421 11.1856 31.9921 10.1133 33.6543 9.51651C35.3165 8.91974 37.1174 8.82481 38.8331 9.24354C40.5488 9.66226 42.1036 10.5762 43.304 11.8715C44.5044 13.1669 45.2974 14.7867 45.5845 16.5292C45.8716 18.2718 45.64 20.0603 44.9186 21.6723C44.1972 23.2843 43.0178 24.6487 41.5271 25.5956C40.0364 26.5426 38.3002 27.0304 36.5344 26.9984C34.7686 26.9664 33.0512 26.4159 31.5959 25.4155L31.6134 25.3714C31.6604 25.2532 31.6846 25.1271 31.6847 24.9999C31.6838 24.2045 31.3675 23.4419 30.8051 22.8795C30.2427 22.3171 29.4801 22.0007 28.6847 21.9999ZM29.672 24.8392L28.6847 27.3075L27.6974 24.8392C27.7356 24.6049 27.8559 24.3918 28.0368 24.238C28.2176 24.0843 28.4473 23.9998 28.6847 23.9998C28.9221 23.9998 29.1518 24.0843 29.3327 24.238C29.5135 24.3918 29.6338 24.6049 29.672 24.8392ZM41.2843 5.05015C43.8663 4.55552 46.3341 4.08286 48.1583 2.81675C49.0187 6.59397 48.1393 9.74247 45.7009 11.7168C44.406 9.84543 42.56 8.42422 40.4196 7.65098C38.2793 6.87774 35.9511 6.79093 33.7592 7.40263C36.1121 6.18792 38.6585 5.39188 41.2843 5.05015ZM28.6847 3.99986C30.6062 3.90605 32.5266 4.20584 34.328 4.88086C31.9741 5.85182 29.9953 7.55496 28.6847 9.73814C27.3741 7.55496 25.3954 5.85182 23.0414 4.88086C24.8429 4.20584 26.7632 3.90605 28.6847 3.99986ZM9.21109 2.81675C11.0353 4.08286 13.5031 4.55552 16.0851 5.05015C18.7109 5.39188 21.2573 6.18792 23.6102 7.40263C21.4183 6.79093 19.0901 6.87774 16.9498 7.65099C14.8094 8.42423 12.9634 9.84545 11.6685 11.7169C9.23013 9.74247 8.35072 6.59398 9.21109 2.81675ZM16.8527 48.4452L15.4885 50.4911C11.3039 46.5794 4.88687 37.724 6.15933 31.3119C6.6636 28.7692 8.41275 26.848 11.3427 25.5721C9.87149 33.8631 11.7226 41.9694 16.5382 48.0496C16.6508 48.1916 16.7675 48.3266 16.8822 48.4648L16.8527 48.4452ZM28.6847 52.9999C25.132 52.9999 21.1769 50.6849 18.1066 46.808C15.8897 43.8931 14.3139 40.5425 13.4825 36.976C12.6511 33.4095 12.5829 29.7075 13.2824 26.1128C15.0536 27.7387 17.3102 28.7374 19.7047 28.9549C22.0992 29.1725 24.4988 28.5969 26.5341 27.3168L27.756 30.3715C27.8303 30.557 27.9585 30.716 28.124 30.828C28.2896 30.94 28.4849 30.9999 28.6847 30.9999C28.8846 30.9999 29.0799 30.94 29.2454 30.828C29.4109 30.716 29.5391 30.557 29.6134 30.3715L30.8353 27.3168C32.8706 28.5969 35.2702 29.1725 37.6647 28.9549C40.0592 28.7374 42.3158 27.7387 44.0871 26.1128C44.7865 29.7075 44.7183 33.4095 43.887 36.976C43.0556 40.5425 41.4798 43.8931 39.2628 46.808C36.1925 50.6849 32.2374 52.9999 28.6847 52.9999Z" fill="white"/>
<path d="M38.6848 32.9999C38.5535 32.9998 38.4234 33.0257 38.3021 33.0759C38.1807 33.1262 38.0705 33.1998 37.9776 33.2927C37.8848 33.3855 37.8111 33.4958 37.7609 33.6171C37.7106 33.7385 37.6848 33.8685 37.6848 33.9999C37.6848 34.2651 37.5795 34.5194 37.3919 34.707C37.2044 34.8945 36.95 34.9999 36.6848 34.9999C36.4196 34.9999 36.1652 34.8945 35.9777 34.707C35.7902 34.5194 35.6848 34.2651 35.6848 33.9999C35.6848 33.7346 35.5795 33.4803 35.3919 33.2928C35.2044 33.1052 34.95 32.9999 34.6848 32.9999C34.4196 32.9999 34.1652 33.1052 33.9777 33.2928C33.7902 33.4803 33.6848 33.7346 33.6848 33.9999C33.6848 34.2651 33.5795 34.5194 33.3919 34.707C33.2044 34.8945 32.95 34.9999 32.6848 34.9999C32.4196 34.9999 32.1652 34.8945 31.9777 34.707C31.7902 34.5194 31.6848 34.2651 31.6848 33.9999C31.6848 33.7346 31.5795 33.4803 31.3919 33.2928C31.2044 33.1052 30.95 32.9999 30.6848 32.9999C30.4196 32.9999 30.1652 33.1052 29.9777 33.2928C29.7902 33.4803 29.6848 33.7346 29.6848 33.9999C29.6848 34.2651 29.5795 34.5194 29.3919 34.707C29.2044 34.8945 28.95 34.9999 28.6848 34.9999C28.4196 34.9999 28.1652 34.8945 27.9777 34.707C27.7902 34.5194 27.6848 34.2651 27.6848 33.9999C27.6848 33.7346 27.5795 33.4803 27.3919 33.2928C27.2044 33.1052 26.95 32.9999 26.6848 32.9999C26.4196 32.9999 26.1652 33.1052 25.9777 33.2928C25.7902 33.4803 25.6848 33.7346 25.6848 33.9999C25.6848 34.2651 25.5795 34.5194 25.3919 34.707C25.2044 34.8945 24.95 34.9999 24.6848 34.9999C24.4196 34.9999 24.1652 34.8945 23.9777 34.707C23.7902 34.5194 23.6848 34.2651 23.6848 33.9999C23.6848 33.7346 23.5795 33.4803 23.3919 33.2928C23.2044 33.1052 22.95 32.9999 22.6848 32.9999C22.4196 32.9999 22.1652 33.1052 21.9777 33.2928C21.7902 33.4803 21.6848 33.7346 21.6848 33.9999C21.6848 34.2651 21.5795 34.5194 21.3919 34.707C21.2044 34.8945 20.95 34.9999 20.6848 34.9999C20.4196 34.9999 20.1652 34.8945 19.9777 34.707C19.7902 34.5194 19.6848 34.2651 19.6848 33.9999C19.6848 33.7346 19.5795 33.4803 19.3919 33.2928C19.2044 33.1052 18.95 32.9999 18.6848 32.9999C18.4196 32.9999 18.1652 33.1052 17.9777 33.2928C17.7902 33.4803 17.6848 33.7346 17.6848 33.9999C17.6845 34.5791 17.8521 35.146 18.1671 35.6321C18.4821 36.1182 18.9312 36.5026 19.46 36.7389C19.9889 36.9753 20.5748 37.0534 21.1471 36.9638C21.7194 36.8742 22.2535 36.6208 22.6848 36.2342C23.2343 36.7272 23.9466 36.9999 24.6848 36.9999C25.4231 36.9999 26.1353 36.7272 26.6848 36.2342C27.2343 36.7272 27.9466 36.9999 28.6848 36.9999C29.4231 36.9999 30.1353 36.7272 30.6848 36.2342C31.2343 36.7272 31.9466 36.9999 32.6848 36.9999C33.4231 36.9999 34.1353 36.7272 34.6848 36.2342C35.1162 36.6208 35.6502 36.8742 36.2225 36.9638C36.7948 37.0534 37.3808 36.9753 37.9096 36.7389C38.4384 36.5026 38.8875 36.1182 39.2025 35.6321C39.5176 35.146 39.6851 34.5791 39.6848 33.9999C39.6848 33.8685 39.659 33.7385 39.6088 33.6171C39.5585 33.4958 39.4849 33.3855 39.392 33.2927C39.2991 33.1998 39.1889 33.1262 39.0675 33.0759C38.9462 33.0257 38.8161 32.9998 38.6848 32.9999Z" fill="white"/>
<path d="M36.6848 38.9999C36.5535 38.9998 36.4234 39.0257 36.3021 39.0759C36.1807 39.1262 36.0705 39.1998 35.9776 39.2927C35.8848 39.3855 35.8111 39.4958 35.7609 39.6171C35.7106 39.7385 35.6848 39.8685 35.6848 39.9999C35.6848 40.2651 35.5795 40.5194 35.3919 40.707C35.2044 40.8945 34.95 40.9999 34.6848 40.9999C34.4196 40.9999 34.1652 40.8945 33.9777 40.707C33.7902 40.5194 33.6848 40.2651 33.6848 39.9999C33.6848 39.7346 33.5795 39.4803 33.3919 39.2928C33.2044 39.1052 32.95 38.9999 32.6848 38.9999C32.4196 38.9999 32.1652 39.1052 31.9777 39.2928C31.7902 39.4803 31.6848 39.7346 31.6848 39.9999C31.6848 40.2651 31.5795 40.5194 31.3919 40.707C31.2044 40.8945 30.95 40.9999 30.6848 40.9999C30.4196 40.9999 30.1652 40.8945 29.9777 40.707C29.7902 40.5194 29.6848 40.2651 29.6848 39.9999C29.6848 39.7346 29.5795 39.4803 29.3919 39.2928C29.2044 39.1052 28.95 38.9999 28.6848 38.9999C28.4196 38.9999 28.1652 39.1052 27.9777 39.2928C27.7902 39.4803 27.6848 39.7346 27.6848 39.9999C27.6848 40.2651 27.5795 40.5194 27.3919 40.707C27.2044 40.8945 26.95 40.9999 26.6848 40.9999C26.4196 40.9999 26.1652 40.8945 25.9777 40.707C25.7902 40.5194 25.6848 40.2651 25.6848 39.9999C25.6848 39.7346 25.5795 39.4803 25.3919 39.2928C25.2044 39.1052 24.95 38.9999 24.6848 38.9999C24.4196 38.9999 24.1652 39.1052 23.9777 39.2928C23.7902 39.4803 23.6848 39.7346 23.6848 39.9999C23.6848 40.2651 23.5795 40.5194 23.3919 40.707C23.2044 40.8945 22.95 40.9999 22.6848 40.9999C22.4196 40.9999 22.1652 40.8945 21.9777 40.707C21.7902 40.5194 21.6848 40.2651 21.6848 39.9999C21.6848 39.7346 21.5795 39.4803 21.3919 39.2928C21.2044 39.1052 20.95 38.9999 20.6848 38.9999C20.4196 38.9999 20.1652 39.1052 19.9777 39.2928C19.7902 39.4803 19.6848 39.7346 19.6848 39.9999C19.6845 40.5791 19.8521 41.146 20.1671 41.6321C20.4821 42.1182 20.9312 42.5026 21.46 42.7389C21.9889 42.9753 22.5748 43.0534 23.1471 42.9638C23.7194 42.8742 24.2535 42.6208 24.6848 42.2342C25.2343 42.7272 25.9466 42.9999 26.6848 42.9999C27.4231 42.9999 28.1353 42.7272 28.6848 42.2342C29.2343 42.7272 29.9466 42.9999 30.6848 42.9999C31.4231 42.9999 32.1353 42.7272 32.6848 42.2342C33.1162 42.6208 33.6502 42.8742 34.2225 42.9638C34.7948 43.0534 35.3808 42.9753 35.9096 42.7389C36.4384 42.5026 36.8875 42.1182 37.2025 41.6321C37.5176 41.146 37.6851 40.5791 37.6848 39.9999C37.6848 39.8685 37.659 39.7385 37.6088 39.6171C37.5585 39.4958 37.4849 39.3855 37.392 39.2927C37.2991 39.1998 37.1889 39.1262 37.0675 39.0759C36.9462 39.0257 36.8161 38.9998 36.6848 38.9999Z" fill="white"/>
<path d="M34.6848 44.9999C34.5535 44.9998 34.4234 45.0257 34.3021 45.0759C34.1807 45.1262 34.0705 45.1998 33.9776 45.2927C33.8848 45.3855 33.8111 45.4958 33.7609 45.6171C33.7106 45.7385 33.6848 45.8685 33.6848 45.9999C33.6848 46.2651 33.5795 46.5194 33.3919 46.707C33.2044 46.8945 32.95 46.9999 32.6848 46.9999C32.4196 46.9999 32.1652 46.8945 31.9777 46.707C31.7902 46.5194 31.6848 46.2651 31.6848 45.9999C31.6848 45.7346 31.5795 45.4803 31.3919 45.2928C31.2044 45.1052 30.95 44.9999 30.6848 44.9999C30.4196 44.9999 30.1652 45.1052 29.9777 45.2928C29.7902 45.4803 29.6848 45.7346 29.6848 45.9999C29.6848 46.2651 29.5795 46.5194 29.3919 46.707C29.2044 46.8945 28.95 46.9999 28.6848 46.9999C28.4196 46.9999 28.1652 46.8945 27.9777 46.707C27.7902 46.5194 27.6848 46.2651 27.6848 45.9999C27.6848 45.7346 27.5795 45.4803 27.3919 45.2928C27.2044 45.1052 26.95 44.9999 26.6848 44.9999C26.4196 44.9999 26.1652 45.1052 25.9777 45.2928C25.7902 45.4803 25.6848 45.7346 25.6848 45.9999C25.6848 46.2651 25.5795 46.5194 25.3919 46.707C25.2044 46.8945 24.95 46.9999 24.6848 46.9999C24.4196 46.9999 24.1652 46.8945 23.9777 46.707C23.7902 46.5194 23.6848 46.2651 23.6848 45.9999C23.6848 45.7346 23.5795 45.4803 23.3919 45.2928C23.2044 45.1052 22.95 44.9999 22.6848 44.9999C22.4196 44.9999 22.1652 45.1052 21.9777 45.2928C21.7902 45.4803 21.6848 45.7346 21.6848 45.9999C21.6845 46.5791 21.8521 47.146 22.1671 47.6321C22.4821 48.1182 22.9312 48.5026 23.46 48.7389C23.9889 48.9753 24.5748 49.0534 25.1471 48.9638C25.7194 48.8742 26.2535 48.6208 26.6848 48.2342C27.2343 48.7272 27.9466 48.9999 28.6848 48.9999C29.4231 48.9999 30.1353 48.7272 30.6848 48.2342C31.1162 48.6208 31.6502 48.8742 32.2225 48.9638C32.7948 49.0534 33.3808 48.9753 33.9096 48.7389C34.4384 48.5026 34.8875 48.1182 35.2025 47.6321C35.5176 47.146 35.6851 46.5791 35.6848 45.9999C35.6848 45.8685 35.659 45.7385 35.6088 45.6171C35.5585 45.4958 35.4849 45.3855 35.392 45.2927C35.2991 45.1998 35.1889 45.1262 35.0675 45.0759C34.9462 45.0257 34.8161 44.9998 34.6848 44.9999Z" fill="white"/>
</g>
<defs>
<filter id="filter0_d_12_49" x="0" y="0" width="57.3694" height="68.0023" filterUnits="userSpaceOnUse" color-interpolation-filters="sRGB">
<feFlood flood-opacity="0" result="BackgroundImageFix"/>
<feColorMatrix in="SourceAlpha" type="matrix" values="0 0 0 0 0 0 0 0 0 0 0 0 0 0 0 0 0 0 127 0" result="hardAlpha"/>
<feOffset dy="4"/>
<feGaussianBlur stdDeviation="2"/>
<feComposite in2="hardAlpha" operator="out"/>
<feColorMatrix type="matrix" values="0 0 0 0 0 0 0 0 0 0 0 0 0 0 0 0 0 0 0.25 0"/>
<feBlend mode="normal" in2="BackgroundImageFix" result="effect1_dropShadow_12_49"/>
<feBlend mode="normal" in="SourceGraphic" in2="effect1_dropShadow_12_49" result="shape"/>
</filter>
</defs>
</svg>
