<svg width="75" height="90" viewBox="0 0 75 90" fill="none" xmlns="http://www.w3.org/2000/svg">
<path d="M73.4438 3.654C66.1838 -2.38419e-07 37.1228 0 37.1228 0C37.1228 0 8.16178 -2.38419e-07 0.921778 3.654C0.921778 3.654 -1.15222 42.571 0.921778 59.595C1.16978 61.629 1.87178 63.603 2.92278 65.517C10.6518 79.629 37.1228 90.001 37.1228 90.001C37.1228 90.001 49.4148 85.197 59.7198 77.682C66.6118 72.657 72.6138 66.42 73.4438 59.595C75.5188 42.571 73.4438 3.654 73.4438 3.654ZM38.1268 62.485L36.5748 64.031C34.6548 63.79 34.1858 64.667 34.2398 65.677L32.7138 66.246L31.3758 65.577H29.3688L29.3418 65.55C29.3088 64.948 28.3108 61.97 28.3108 61.97L34.5208 58.624C34.8348 58.457 35.2098 58.47 35.5048 58.671C36.3948 59.273 38.2548 60.545 38.6428 60.933C39.1568 61.448 38.1268 62.485 38.1268 62.485ZM62.9048 69.719C62.8848 69.739 62.8648 69.752 62.8448 69.766C60.8238 71.72 58.5158 73.547 56.1268 75.199L54.7948 74.276H48.7728C48.7728 74.276 47.4348 72.269 46.0958 70.93C45.4198 70.254 43.3728 68.548 41.5118 67.022C41.4718 65.951 40.1938 64.031 40.1938 64.031V62.485C40.1938 62.485 41.7398 58.865 43.8068 57.834C45.8748 56.804 46.9048 61.969 46.9048 61.969L47.4198 60.932C48.4568 63 50.5248 64.545 51.0398 65.067C51.5548 65.582 51.0398 67.128 51.0398 67.128C51.0398 67.128 51.5548 66.613 52.0698 66.097C52.5848 65.582 55.6828 70.232 55.6828 70.232V67.649C56.8338 68.793 57.6898 70.219 58.0648 70.888C57.9508 70.065 58.2658 68.165 58.2658 68.165C58.2658 68.165 59.3028 69.195 60.3338 69.711C61.1438 70.119 62.2538 69.892 62.7088 69.771C62.0928 69.677 61.0228 67.59 62.4008 67.128C63.4178 66.793 63.9938 67.563 64.5558 67.984C64.0338 68.573 63.4718 69.155 62.8828 69.724C62.8918 69.719 62.8988 69.719 62.9048 69.719ZM69.6908 58.089C69.3628 60.799 68.1248 63.409 66.3048 65.858C64.1438 63.643 58.1148 57.32 59.8208 57.32C61.8888 57.32 63.9558 56.283 63.9558 56.283C63.9558 56.283 61.3728 55.768 62.9188 55.253C63.0058 55.226 63.0858 55.199 63.1598 55.179C63.7758 54.985 63.9228 54.169 63.3938 53.814C61.1258 52.275 55.5318 50.221 55.1898 50.094C61.8878 51.118 63.4338 49.572 63.9558 49.057C64.4708 48.542 63.4338 48.02 63.4338 48.02C56.7218 49.572 52.0718 46.474 52.0718 46.474C55.1698 45.959 56.7228 44.406 56.7228 44.406C50.5268 45.436 44.3238 40.271 44.3238 40.271C50.0048 40.271 54.1398 37.688 54.1398 37.688C51.0418 37.688 49.4888 36.657 49.4888 36.657C55.1698 36.142 61.8878 31.491 61.8878 31.491C60.1478 32.12 58.7898 31.491 58.7898 31.491C61.8878 30.46 62.4028 27.362 62.4028 27.362C61.4858 28.774 56.2068 30.46 56.2068 30.46C53.6238 30.46 54.6548 29.423 54.6548 29.423C65.5018 26.325 63.9558 22.196 63.9558 22.196C63.4338 23.742 62.9188 23.226 62.9188 23.226C63.4338 21.68 62.9188 20.643 62.9188 20.643C62.2628 21.881 47.4348 26.097 43.4198 26.097C40.7698 26.097 31.4088 30.46 31.4088 30.46L28.3108 28.392C28.3108 15.478 15.9178 22.711 15.9178 22.711C13.3348 22.711 8.68478 24.257 7.65378 25.294C6.61678 26.324 7.90778 27.616 7.90778 27.616C11.0058 24.518 17.2088 29.168 17.2088 29.168C9.24578 46.967 23.7928 52.448 26.5768 53.317C26.8248 53.391 26.9918 53.618 26.9988 53.879C27.0588 55.84 28.8258 59.386 28.8258 59.386L26.2498 61.447H24.6978C21.5398 59.473 20.4958 60.818 20.1748 61.561H18.6628L16.6558 62.899C16.6558 62.899 17.3248 63.568 15.3178 62.899C13.3108 62.23 11.3028 62.899 11.3028 62.899L6.96678 64.257C5.74878 62.283 4.93278 60.215 4.67778 58.087C2.81078 42.817 4.67778 7.921 4.67778 7.921C11.1618 4.656 37.1378 4.656 37.1378 4.656C37.1378 4.656 63.1878 4.656 69.6918 7.921C69.6908 7.923 71.5508 42.819 69.6908 58.089Z" fill="#0E1A40"/>
</svg>
