<svg width="52" height="75" viewBox="0 0 52 75" fill="none" xmlns="http://www.w3.org/2000/svg">
<path d="M15.519 31.9504C17.4873 31.9504 19.083 30.3547 19.083 28.3864C19.083 26.418 17.4873 24.8224 15.519 24.8224C13.5506 24.8224 11.955 26.418 11.955 28.3864C11.955 30.3547 13.5506 31.9504 15.519 31.9504Z" fill="black"/>
<path d="M38.079 31.9504C40.0474 31.9504 41.643 30.3547 41.643 28.3864C41.643 26.418 40.0474 24.8224 38.079 24.8224C36.1107 24.8224 34.515 26.418 34.515 28.3864C34.515 30.3547 36.1107 31.9504 38.079 31.9504Z" fill="black"/>
<path d="M5.97501 30.4754V32.7154C2.93501 30.5154 2.83501 28.6854 3.47501 27.4054C4.35501 28.8054 5.29501 29.8254 5.97501 30.4754Z" stroke="black" stroke-miterlimit="10"/>
<path d="M47.286 32.8054V29.6754C47.485 29.6954 47.667 29.6654 47.825 29.6054C48.286 29.5954 48.677 29.3454 48.876 28.7654C48.937 28.5954 48.985 28.4154 49.046 28.2254C49.275 27.7254 49.446 27.2054 49.597 26.8754C50.536 28.1654 50.914 30.2454 47.286 32.8054Z" stroke="black" stroke-miterlimit="10"/>
<path d="M10.252 22.5364C10.252 22.5364 13.371 20.5314 17.349 22.1144C18.493 22.5694 19.083 22.1144 20.042 21.7814C20.042 21.7814 20.475 23.7704 18.913 24.2394C18.913 24.2394 17.038 24.0314 15.163 23.0744C12.49 21.7094 11.151 22.2024 10.252 22.5364Z" fill="black"/>
<path d="M22.671 53.0514C22.492 53.5864 22.313 54.2394 22.16 54.9514C22.16 54.9784 22.146 55.0044 22.146 55.0284C21.15 59.8024 20.908 67.5664 20.908 67.5664C20.908 67.5664 19.299 67.5294 17.933 67.2734C17.307 67.1594 16.733 67.0054 16.375 66.7764C15.251 66.0604 17.563 57.1224 17.959 55.9224C18.367 54.7214 18.686 48.1844 18.686 48.1844C18.686 48.1844 13.554 57.1224 11.319 53.8724C11.09 53.5404 10.898 53.2454 10.745 52.9764C10.936 53.0134 11.14 53.0314 11.345 53.0314C12.967 53.0314 14.295 51.8154 14.295 50.3364C14.295 49.5244 13.899 48.7914 13.273 48.3204L13.656 47.9244C13.656 47.9244 16.797 41.0064 17.907 41.0064H23.947C23.948 40.9974 24.113 48.9004 22.671 53.0514Z" fill="black"/>
<path d="M14.2949 50.3294C14.2949 51.8104 12.9669 53.0244 11.3449 53.0244C11.1399 53.0244 10.9359 53.0094 10.7449 52.9724C9.40393 52.7164 8.38293 51.6324 8.38293 50.3264C8.38293 49.1804 9.18693 48.1804 10.3239 47.8244C10.1959 47.6064 10.1189 47.3424 10.1189 47.0564C10.1189 46.2884 10.6939 45.6754 11.3839 45.6754C12.0859 45.6754 12.6479 46.2884 12.6479 47.0564C12.6479 47.3374 12.5709 47.6064 12.4309 47.8314C12.7369 47.9464 13.0309 48.1024 13.2729 48.3084C13.8989 48.7844 14.2949 49.5114 14.2949 50.3294Z" stroke="black" stroke-miterlimit="10"/>
<path d="M40.252 52.8064C39.731 51.5684 36.936 52.8574 35.988 53.3274C35.798 53.4314 35.678 53.4924 35.678 53.4924C35.827 52.4304 34.079 46.8444 33.378 47.1594C32.678 47.4784 33.44 48.8704 33.378 50.8884C33.316 52.9074 36.049 58.6544 36.049 58.6544C36.049 58.6544 37.172 62.7544 37.006 63.6594C36.854 64.5654 37.275 66.4814 37.006 66.2154C36.735 65.9444 36.688 66.0614 35.678 66.3794C34.741 66.6744 37.299 67.9114 34.477 66.7364V66.7224C34.248 66.6184 33.967 66.5054 33.664 66.3764C31.877 65.6064 30.893 60.6904 30.346 55.3824C30.346 55.3284 30.33 55.2694 30.33 55.2164C29.629 48.4014 29.668 40.9904 29.668 40.9904H35.043C37.275 42.5344 36.27 43.3264 37.865 45.3564C39 46.7954 40.049 50.7104 40.328 52.2994C40.446 52.9724 40.432 53.2404 40.252 52.8064Z" fill="black"/>
<path d="M30.678 40.9974C30.36 41.5064 30.09 41.9914 30.09 42.1724C30.09 42.5944 26.694 44.7764 26.694 44.7764C25.89 44.9934 23.4 42.1724 23.4 42.1724L23.22 40.9974H30.678Z" stroke="black" stroke-miterlimit="10"/>
<path d="M26.923 42.3864L27.777 44.0464C27.777 44.0464 27.227 44.7104 26.692 44.7754C26.155 44.8394 25.376 44.1124 25.376 44.1124L26.376 42.4764C25.802 42.1324 25.099 40.9974 25.099 40.9974C25.099 40.9974 28.124 40.4094 28.023 40.9974C27.944 41.4184 27.282 42.0684 26.923 42.3864Z" fill="black"/>
<path d="M21.9619 53.5424C21.9619 53.5424 22.1059 53.4514 22.3489 53.3674C22.5929 53.2804 22.9349 53.1974 23.3419 53.1674C23.5439 53.1584 23.7639 53.1464 23.9919 53.1884C24.2209 53.2284 24.4579 53.3414 24.7059 53.4464C25.2009 53.6744 25.7449 53.6724 26.2859 53.4864C26.5569 53.4044 26.8229 53.3064 27.0849 53.2744C27.3479 53.2344 27.6039 53.1964 27.8499 53.1584C28.3349 53.0774 28.7879 53.1174 29.1749 53.1444C29.5549 53.1814 29.8699 53.2124 30.0959 53.2354C30.3149 53.2574 30.4399 53.2114 30.4499 53.2114L30.5539 53.2814C30.5539 53.2814 30.5399 53.3244 30.5199 53.4054C30.4939 53.4814 30.4159 53.5904 30.3169 53.6954C30.1079 53.9154 29.7569 54.1204 29.3389 54.2714C28.9189 54.4154 28.4269 54.5264 27.9009 54.4844C27.6389 54.4684 27.3729 54.4404 27.0979 54.4034C26.8269 54.3734 26.5509 54.2744 26.2809 54.1834C25.7379 53.9834 25.1999 53.9444 24.6799 54.1214C24.4199 54.2034 24.1679 54.2954 23.9339 54.3094C23.6989 54.3274 23.4769 54.2884 23.2739 54.2474C22.8719 54.1634 22.5399 54.0284 22.3119 53.9034C22.0819 53.7804 21.9559 53.6654 21.9559 53.6654L21.9619 53.5424Z" fill="black"/>
<path d="M34.482 66.7244V68.2454C34.482 68.2454 33.612 68.6954 32.372 68.0164C31.573 67.5694 30.055 67.9654 29.102 68.2954C28.612 68.4654 28.261 68.6154 28.261 68.6154C28.261 68.6154 28.261 68.6054 28.261 68.5754C28.221 68.1444 27.942 64.2454 28.022 64.1444C28.083 64.1154 28.152 64.0654 28.211 64.0034C28.531 63.6914 28.761 63.0954 28.861 62.6114C28.938 62.2814 28.951 62.0034 28.898 61.8894C28.83 61.7484 28.257 61.2484 27.58 60.7194C27.511 60.2814 27.438 59.8504 27.381 59.4694C27.102 57.6984 27.022 57.6574 25.951 58.2994C25.751 58.4184 25.581 58.7784 25.441 59.2994C25.17 59.1914 25.01 59.1974 25.061 59.4184C25.09 59.5494 25.09 59.6894 25.071 59.8274C25.021 60.3574 24.701 60.9184 24.461 61.2774C24.291 61.5374 24.151 61.6974 24.151 61.6974C24.151 61.6974 24.47 61.9474 24.941 62.3064C24.68 64.7374 24.621 67.4374 24.67 67.7774C24.731 68.2274 24.75 69.1574 24.46 69.3774C24.34 69.4874 24.18 69.4694 23.95 69.2484C23.15 68.4774 17.84 69.2484 17.84 69.2484C17.6 69.0374 17.77 68.0274 17.93 67.2694C19.3 67.5294 20.91 67.5584 20.91 67.5584C20.91 67.5584 21.15 59.7984 22.14 55.0294C22.14 55.0004 22.16 54.9794 22.16 54.9494L22.7 55.0294C24.1 55.1994 27.83 55.6094 29.66 55.3814L30.33 55.2214C30.33 55.2734 30.34 55.3294 30.34 55.3814C30.89 60.6934 31.869 65.6104 33.66 66.3694C33.971 66.5064 34.25 66.6254 34.482 66.7244Z" stroke="black" stroke-miterlimit="10"/>
<path d="M24.512 72.3304C24.192 72.2784 24.294 71.3724 23.221 73.0184C22.147 74.6784 20.95 74.2954 17.347 73.8284C13.759 73.3474 17.845 69.2634 17.845 69.2634C17.845 69.2634 23.157 68.4924 23.949 69.2634C24.179 69.4804 24.345 69.5004 24.46 69.3904L24.512 69.4624C24.512 69.4564 24.829 72.3814 24.512 72.3304Z" fill="black" stroke="black" stroke-width="1.2768" stroke-miterlimit="10"/>
<path d="M38.301 72.2784C36.858 74.9334 30.791 72.0234 30.639 72.1754C30.498 72.3414 30.451 72.2844 29.44 72.1754C28.458 72.0714 28.751 69.1964 28.751 69.1964C28.751 69.1964 28.815 69.0474 28.98 68.6344C29.019 68.5304 29.056 68.4164 29.109 68.2864C30.054 67.9544 31.575 67.5574 32.38 68.0074C33.618 68.6874 34.484 68.2364 34.484 68.2364V67.7774C34.587 67.8884 34.689 68.0064 34.792 68.1314C34.976 68.3344 35.148 68.5534 35.314 68.7734C36.053 69.7374 39.743 69.6234 38.301 72.2784Z" fill="black" stroke="black" stroke-width="1.2349" stroke-miterlimit="10"/>
<path d="M40.012 52.4274C40.012 54.0464 39.037 55.3514 37.832 55.3514C36.639 55.3514 35.668 54.0464 35.668 52.4274C35.668 52.2614 35.68 52.0954 35.701 51.9424C36.571 51.4694 40.012 51.8794 40.012 52.4274Z" stroke="black" stroke-miterlimit="10"/>
<path d="M14.031 51.7354L25.071 59.8364C25.021 60.3654 24.701 60.9264 24.461 61.2854L12.901 52.8854L14.031 51.7354Z" fill="black" stroke="#010101" stroke-width="1.2768" stroke-miterlimit="10"/>
<path d="M30.8299 65.9154L28.2109 64.0064C28.5309 63.6954 28.7609 63.0964 28.8609 62.6154L32.0979 64.9854C32.1019 64.9854 33.1629 66.5064 30.8299 65.9154Z" fill="black" stroke="#010101" stroke-width="1.2768" stroke-miterlimit="10"/>
<path d="M9.65392 47.8864L7.68892 45.9254C7.68892 45.9254 6.36192 45.0094 6.09692 46.6964L8.00592 49.1744L9.65392 47.8864Z" fill="black" stroke="#010101" stroke-width="1.2768" stroke-miterlimit="10"/>
<path d="M24.1229 36.0534C24.1229 36.0534 24.5429 36.2324 25.0849 36.4294C25.2189 36.4734 25.3639 36.5204 25.5179 36.5714C25.6639 36.6284 25.8299 36.6404 25.9809 36.6974C26.2999 36.7424 26.6199 36.8224 26.9399 36.7924C27.2599 36.8124 27.5789 36.7344 27.8969 36.6844C28.0469 36.6264 28.2079 36.5914 28.3599 36.5544C28.5079 36.5024 28.6509 36.4444 28.7939 36.4014C29.0769 36.3194 29.3069 36.1984 29.4829 36.1444C29.6649 36.0824 29.7759 36.0534 29.7759 36.0534C29.7759 36.0534 29.7409 36.1574 29.6569 36.3314C29.5609 36.4964 29.4539 36.7674 29.2189 36.9994C29.0089 37.2644 28.6979 37.5124 28.3149 37.7304C28.1129 37.8114 27.9029 37.9214 27.6689 37.9764C27.4369 38.0074 27.1929 38.0794 26.9499 38.0684C26.7059 38.0634 26.4639 38.0384 26.2299 37.9804C25.9919 37.9484 25.7889 37.8224 25.5839 37.7464C25.1959 37.5374 24.8789 37.2864 24.6639 37.0244C24.2129 36.5164 24.1229 36.0534 24.1229 36.0534Z" fill="black"/>
<path d="M28.8619 62.6154C28.7609 63.0954 28.5319 63.6954 28.2119 64.0064C28.1519 64.0684 28.0829 64.1154 28.0239 64.1494C27.8139 64.2664 27.5849 64.2664 27.3249 64.0874C26.6549 63.6164 25.6429 62.8474 24.9439 62.3164C24.4729 61.9564 24.1539 61.7064 24.1539 61.7064C24.1539 61.7064 24.2939 61.5464 24.4639 61.2864C24.7039 60.9274 25.0249 60.3664 25.0739 59.8374C25.0939 59.6964 25.0939 59.5584 25.0639 59.4274C25.0129 59.2064 25.1729 59.1984 25.4439 59.3084C25.9439 59.5074 26.8349 60.1264 27.5849 60.7284C28.2669 61.2574 28.8349 61.7574 28.9049 61.9004C28.9519 62.0064 28.9419 62.2854 28.8619 62.6154Z" stroke="black" stroke-miterlimit="10"/>
<path d="M25.7449 7.04538L24.8049 6.92537C23.1949 6.71537 21.5549 6.55537 19.9349 6.41537C19.1249 6.35537 18.3149 6.29538 17.4949 6.29538C17.0949 6.28538 16.6849 6.29537 16.2849 6.33537C16.0849 6.35537 15.8949 6.39537 15.6949 6.45537C15.5049 6.51537 15.3149 6.57538 15.1749 6.73538C15.3949 6.36538 15.8449 6.20537 16.2349 6.08537C16.6349 5.95537 17.0549 5.87538 17.4649 5.80538C18.2949 5.69538 19.1349 5.64538 19.9649 5.63538C20.6649 5.62538 21.3549 5.64537 22.0449 5.68537C21.4149 5.51537 20.7649 5.39537 20.1249 5.25537L15.1749 4.30537C16.0249 4.25537 16.8649 4.28538 17.7049 4.29538C18.5549 4.32538 19.3949 4.38537 20.2449 4.48537C21.0849 4.56537 21.9249 4.71538 22.7649 4.89538C23.1849 4.99538 23.6049 5.11537 24.0349 5.27537C24.2449 5.35537 24.4549 5.44537 24.6749 5.57537C24.8949 5.71537 25.1349 5.84538 25.3249 6.21538L25.7449 7.04538Z" fill="black"/>
<path d="M34.535 6.72537C34.655 6.81537 34.695 6.99537 34.765 7.11537C34.655 7.00537 34.595 6.87537 34.445 6.81537C34.325 6.74537 34.206 6.68537 34.055 6.65537C33.795 6.56537 33.505 6.52537 33.215 6.50537C32.645 6.44537 32.055 6.46537 31.475 6.47537C30.315 6.52537 29.135 6.62537 27.975 6.76537L27.135 6.86537L27.515 6.18537C27.625 5.99537 27.755 5.75537 27.915 5.65537C28.055 5.52537 28.215 5.40537 28.364 5.33537C28.684 5.15537 28.994 5.05537 29.304 4.94537C29.934 4.76537 30.554 4.64537 31.184 4.57537C32.434 4.42537 33.684 4.40537 34.924 4.52537C33.704 4.76537 32.484 4.98537 31.294 5.25537C30.704 5.39537 30.104 5.52537 29.564 5.73537C29.514 5.75537 29.474 5.76537 29.424 5.78537C30.113 5.75537 30.794 5.75537 31.484 5.80537C32.094 5.84537 32.694 5.92537 33.295 6.09537C33.585 6.17537 33.885 6.26537 34.154 6.43537C34.295 6.50537 34.425 6.60537 34.535 6.72537Z" fill="black"/>
<path d="M24.8709 7.67737C24.8709 7.67737 24.5389 7.77837 24.0779 7.88737C23.8469 7.93237 23.5819 8.01037 23.3009 8.05337C23.1599 8.07537 23.0189 8.12838 22.8719 8.14838C22.7269 8.17938 22.5749 8.19037 22.4329 8.23737C22.1469 8.31437 21.842 8.34537 21.577 8.42837C21.313 8.51237 21.0359 8.53937 20.8179 8.61137C20.3849 8.75437 20.0229 8.80138 20.0229 8.80138C20.0229 8.80138 20.2049 8.51937 20.5859 8.16837C20.7729 7.98637 21.039 7.86137 21.319 7.70737C21.598 7.54137 21.9329 7.48937 22.2549 7.38737C22.9149 7.25737 23.5899 7.27337 24.0799 7.39037C24.5709 7.48837 24.8709 7.67737 24.8709 7.67737Z" fill="black"/>
<path d="M27.246 7.97637C27.246 7.97637 27.548 7.79037 28.029 7.65537C28.508 7.51337 29.172 7.41937 29.841 7.46037C30.176 7.49437 30.515 7.54037 30.823 7.64337C31.135 7.74437 31.425 7.87637 31.636 8.05437C31.744 8.13737 31.838 8.21937 31.905 8.31937C31.972 8.41137 32.032 8.48237 32.051 8.56737C32.102 8.72337 32.113 8.80237 32.113 8.80237C32.113 8.80237 32.041 8.75737 31.918 8.67737C31.871 8.63437 31.777 8.61637 31.697 8.58037C31.619 8.54237 31.512 8.52537 31.408 8.49837C30.981 8.40537 30.387 8.36237 29.777 8.32637C29.164 8.28237 28.537 8.22837 28.052 8.15037C27.582 8.07937 27.246 7.97637 27.246 7.97637Z" fill="black"/>
<path d="M43.121 22.5254C42.221 22.1954 40.881 21.7154 38.228 23.0754C36.348 24.0354 34.478 24.2354 34.478 24.2354C34.24 24.1654 34.04 24.0554 33.887 23.9254C35.018 23.8654 35.199 23.1654 35.137 22.3054C35.408 22.3054 35.699 22.2554 36.034 22.1154C39.841 20.6054 42.862 22.3654 43.121 22.5254Z" fill="black"/>
<path d="M49.7249 26.6254C49.6849 26.6854 49.6349 26.7754 49.5949 26.8754C49.4459 27.2054 49.2749 27.7254 49.0449 28.2254C48.9829 28.4154 48.9349 28.5954 48.8749 28.7654C48.6749 29.3454 48.2829 29.5954 47.8239 29.6054C47.6639 29.6654 47.4829 29.6954 47.2829 29.6754C47.2329 29.6754 47.1929 29.6754 47.1429 29.6654C46.3829 29.5454 45.3719 28.8454 44.0029 27.1354C44.0029 27.1354 46.5129 26.6054 45.7729 25.5454C45.0439 24.4954 45.1539 20.0154 44.3529 20.2754C43.5529 20.5354 42.9729 21.5854 42.7119 21.5654C42.4519 21.5554 40.8929 20.6954 39.8619 20.4154C38.8409 20.1354 35.5829 19.6754 35.5509 18.8954C35.5299 18.1154 34.2799 20.1154 35.0209 21.5054C35.7499 22.8954 35.4999 23.8454 34.8009 23.8754C34.0909 23.9154 30.6709 24.3254 29.6599 22.2054C28.6599 20.0854 27.4389 14.5954 26.4609 15.0254C25.4709 15.4654 24.3209 17.4254 24.0809 18.5954C23.8409 19.7654 21.9609 24.6654 19.7909 21.0154C19.7909 21.0154 19.1609 19.4654 19.7309 18.3254C20.2909 17.1754 14.9409 20.5554 14.1409 19.2754C13.3409 17.9854 9.43094 22.3854 7.89094 21.9354C6.34094 21.4854 6.77094 30.3254 6.95094 31.3154C6.95094 31.3154 6.62094 31.0754 6.10094 30.5954C6.06094 30.5554 6.02094 30.5154 5.97094 30.4754C5.29094 29.8254 4.35094 28.8054 3.47094 27.4054C0.910941 23.3354 -1.13906 16.1054 5.22094 5.78537C5.22094 5.78537 13.0209 -2.88463 24.1209 3.11537C24.1209 3.11537 25.8609 4.46537 28.7109 3.36537C31.5699 2.27537 38.0799 -0.214629 42.4099 3.17537C46.7399 6.57537 47.6309 9.57537 48.7499 13.0354C49.8709 16.4954 48.8709 15.5854 50.1089 16.4154C51.3389 17.2454 50.0089 20.5454 49.8799 21.3954C49.7649 22.2454 50.3249 25.8054 49.7249 26.6254Z" stroke="black" stroke-miterlimit="10"/>
<path d="M47.145 29.6654V32.9554C47.145 37.1754 43.706 40.6154 39.485 40.6154H13.635C9.41498 40.6154 5.97498 37.1754 5.97498 32.9554V30.4754C6.02498 30.5154 6.06497 30.5554 6.10497 30.5954C6.62497 31.0754 6.95498 31.3154 6.95498 31.3154C6.77498 30.3254 6.34497 21.4854 7.89497 21.9354C9.43497 22.3854 13.345 17.9854 14.145 19.2754C14.945 20.5554 20.295 17.1754 19.735 18.3254C19.165 19.4654 19.795 21.0154 19.795 21.0154C21.965 24.6654 23.845 19.7654 24.085 18.5954C24.325 17.4254 25.475 15.4654 26.465 15.0254C27.444 14.5954 28.664 20.0854 29.664 22.2054C30.675 24.3254 34.095 23.9154 34.805 23.8754C35.504 23.8454 35.754 22.8954 35.025 21.5054C34.286 20.1154 35.536 18.1154 35.555 18.8954C35.584 19.6754 38.845 20.1354 39.866 20.4154C40.895 20.6954 42.456 21.5554 42.717 21.5654C42.977 21.5854 43.557 20.5354 44.357 20.2754C45.158 20.0154 45.046 24.4954 45.777 25.5454C46.517 26.6054 44.007 27.1354 44.007 27.1354C45.375 28.8454 46.385 29.5454 47.145 29.6654Z" stroke="black" stroke-miterlimit="10"/>
</svg>
