<svg width="75" height="90" viewBox="0 0 75 90" fill="none" xmlns="http://www.w3.org/2000/svg">
<path d="M73.4476 3.652C66.1856 0 37.1266 0 37.1266 0C37.1266 0 8.16056 0 0.919556 3.652C0.919556 3.652 -1.14944 42.569 0.919556 59.597C1.75756 66.456 7.78856 72.725 14.7096 77.763C24.9506 85.232 37.1266 90.001 37.1266 90.001C37.1266 90.001 53.2646 83.701 64.0546 74.235C68.9785 69.921 72.7956 64.935 73.4476 59.597C75.5166 42.569 73.4476 3.652 73.4476 3.652ZM69.6926 58.087C69.2996 61.325 67.6136 64.408 65.1926 67.263C65.2856 63.229 64.5096 58.563 62.5446 53.194C62.5446 53.194 58.4916 42.3 56.9366 39.19C54.9366 35.19 52.0926 31.118 52.0926 29.484C52.0926 27.849 53.1356 24.294 53.8446 23.298C54.3396 22.602 55.7796 20.722 55.2306 20.174C54.6826 19.626 52.2206 21.115 52.2206 21.115C52.1276 21.208 43.5206 25.47 47.8656 34.17C52.2206 42.86 54.3936 47.753 53.8446 48.301C53.8446 48.301 40.7996 43.042 34.8206 49.56C30.4036 54.381 31.4036 57.432 31.4036 58.519C31.4036 59.606 33.1866 79.833 53.8446 66.778C53.8446 66.778 51.6726 79.833 38.6276 79.833C25.5826 79.833 25.5826 67.325 25.5826 67.325C25.5826 67.325 25.9246 56.119 31.6476 48.387C39.9366 37.189 41.9366 32.189 41.9716 29.9C42.0726 23.384 40.9366 21.189 40.9366 21.189C40.9366 21.189 38.6276 11.876 28.5716 14.328C28.5716 14.328 20.9576 13.242 17.1506 20.307C17.1506 20.307 9.54756 25.738 13.3436 29.545C13.3436 29.545 13.0746 30.9 13.6226 31.448C14.1606 31.986 13.0746 29.814 14.1606 29.814C14.1606 29.814 15.7956 30.362 16.8816 29.814C17.9676 29.276 15.2466 30.9 15.7956 31.986C15.7956 31.986 13.3336 32.069 12.2986 33.103C11.7816 33.62 12.5366 35.793 11.4396 36.341C10.3536 36.879 8.72956 39.062 9.26756 40.148C9.26756 40.148 10.4466 38.234 11.4396 37.831C11.5946 37.769 11.7606 37.883 11.7606 38.048C11.7706 38.607 11.9776 39.858 13.6126 40.686C13.5196 40.583 12.5156 39.465 13.3846 37.883C13.8186 37.107 13.9636 36.197 13.8816 35.307C13.8606 35.09 13.8506 34.872 13.8506 34.655C13.8506 33.569 15.7956 33.083 15.7956 33.083C15.7956 33.083 19.6026 38.514 28.8406 28.19C28.8406 28.19 31.0126 27.642 32.0996 26.007C32.0996 26.007 33.7336 33.083 24.4966 43.407C24.4966 43.407 12.7866 56.048 13.7176 71.773C9.00056 67.78 5.28656 63.104 4.67656 58.087C2.81456 42.818 4.67656 7.925 4.67656 7.925C11.1626 4.656 37.1386 4.656 37.1386 4.656C37.1386 4.656 63.1866 4.656 69.6936 7.925C69.6936 7.925 71.5546 42.818 69.6926 58.087ZM50.8546 57.269C50.8546 57.269 42.1546 63.248 40.5306 59.441C40.5306 59.441 39.9826 56.72 43.7896 56.182C47.5966 55.635 50.8546 57.269 50.8546 57.269Z" fill="#1A472A"/>
</svg>
