<svg width="68" height="69" viewBox="0 0 68 69" fill="none" xmlns="http://www.w3.org/2000/svg">
<g opacity="0.2" filter="url(#filter0_d_12_8)">
<path d="M63.7635 0.354589C63.6156 0.179313 63.4119 0.060289 63.1866 0.0175195C62.9612 -0.0252499 62.7281 0.0108417 62.5262 0.119729C61.7811 0.520609 61.0431 0.913676 60.3123 1.29893C48.5031 7.55656 38.2897 12.9891 38.013 40.8472C36.7488 40.2886 35.3819 40.0001 33.9998 40.0001C32.6177 40.0001 31.2509 40.2887 29.9867 40.8473C29.71 12.9891 19.4966 7.55656 7.68733 1.29893C6.95688 0.912209 6.21893 0.519143 5.47348 0.119729C5.27157 0.0110249 5.03843 -0.0249569 4.81315 0.0178173C4.58786 0.0605915 4.38414 0.179521 4.23612 0.354663C4.08811 0.529806 4.00482 0.750512 4.0002 0.979775C3.99559 1.20904 4.06994 1.43292 4.21079 1.61387C10.8748 10.1822 14.9998 23.0201 14.9998 30.0001C14.9998 30.1381 15.0283 30.2747 15.0836 30.4012C15.1389 30.5276 15.2198 30.6413 15.3211 30.735L27.7491 42.2069C26.1319 43.5019 24.957 45.2672 24.3865 47.2588C23.816 49.2505 23.8781 51.3701 24.5644 53.3249C25.2506 55.2797 26.5271 56.9731 28.2173 58.1711C29.9075 59.369 31.9281 60.0125 33.9999 60.0125C36.0716 60.0125 38.0922 59.369 39.7824 58.1711C41.4727 56.9731 42.7491 55.2797 43.4353 53.3249C44.1216 51.3701 44.1837 49.2505 43.6132 47.2588C43.0427 45.2672 41.8678 43.5019 40.2506 42.2069L52.6786 30.735C52.7799 30.6413 52.8608 30.5276 52.9161 30.4012C52.9714 30.2747 52.9999 30.1381 52.9998 30.0001C52.9998 23.0201 57.1248 10.1822 63.7889 1.61387C63.9298 1.43293 64.0042 1.20902 63.9996 0.979725C63.995 0.750428 63.9116 0.529701 63.7635 0.354589ZM8.22641 3.8502C19.0594 9.63536 27.4862 15.1476 27.9774 39.6954L16.995 29.5577C16.8553 22.9566 13.6434 12.3307 8.22641 3.8502ZM40.2348 45.0001H27.7648C28.5123 44.0641 29.4609 43.3085 30.5403 42.7892C31.6196 42.2698 32.8021 42.0002 33.9998 42.0002C35.1976 42.0002 36.3801 42.2698 37.4594 42.7892C38.5388 43.3085 39.4874 44.0641 40.2348 45.0001ZM26.0693 51.0001H41.9304C41.8451 51.6866 41.6705 52.3589 41.4109 53.0001H26.5888C26.3292 52.3589 26.1546 51.6866 26.0693 51.0001ZM26.0693 49.0001C26.1545 48.3136 26.3292 47.6413 26.5888 47.0001H41.4108C41.6705 47.6413 41.8451 48.3136 41.9304 49.0001H26.0693ZM33.9998 58.0001C32.8021 57.9997 31.6198 57.7299 30.5405 57.2105C29.4612 56.6912 28.5126 55.9358 27.7648 55.0001H40.2348C39.4871 55.9358 38.5385 56.6912 37.4592 57.2105C36.3799 57.7299 35.1976 57.9997 33.9998 58.0001ZM51.0047 29.5577L40.0223 39.6954C40.5135 15.1476 48.9403 9.63535 59.7733 3.8502C54.3563 12.3307 51.1444 22.9566 51.0047 29.5577Z" fill="white"/>
</g>
<defs>
<filter id="filter0_d_12_8" x="0" y="0" width="67.9998" height="68.0125" filterUnits="userSpaceOnUse" color-interpolation-filters="sRGB">
<feFlood flood-opacity="0" result="BackgroundImageFix"/>
<feColorMatrix in="SourceAlpha" type="matrix" values="0 0 0 0 0 0 0 0 0 0 0 0 0 0 0 0 0 0 127 0" result="hardAlpha"/>
<feOffset dy="4"/>
<feGaussianBlur stdDeviation="2"/>
<feComposite in2="hardAlpha" operator="out"/>
<feColorMatrix type="matrix" values="0 0 0 0 0 0 0 0 0 0 0 0 0 0 0 0 0 0 0.25 0"/>
<feBlend mode="normal" in2="BackgroundImageFix" result="effect1_dropShadow_12_8"/>
<feBlend mode="normal" in="SourceGraphic" in2="effect1_dropShadow_12_8" result="shape"/>
</filter>
</defs>
</svg>
