<svg width="100" height="100" viewBox="0 0 100 100" fill="none" xmlns="http://www.w3.org/2000/svg">
<rect width="100" height="100" fill="white"/>
<path d="M61.8794 42.4819C59.2463 38.6724 56.6133 34.0785 56.8374 31.3895C57.3416 26.2915 58.1819 19.1766 62.2715 19.6248C63.9522 19.7929 64.9606 20.2971 65.5208 20.8573C65.913 21.2495 66.5852 20.8573 66.4732 20.3531C66.1931 19.2887 65.5208 17.7761 63.9522 15.6472C63.9522 15.6472 58.0139 8.47641 52.6357 11.9498C47.2576 15.3671 36.6134 28.9805 38.126 38.6724C38.3501 40.0729 38.5181 41.3054 38.5742 42.4258C29.3865 43.7143 23 46.5155 23 49.8208C23 54.3586 35.0448 58 49.8906 58C64.7365 58 76.7813 54.3586 76.7813 49.8208C76.7813 46.6275 70.7309 43.8264 61.8794 42.4819ZM62.1035 46.2353C57.7337 48.5323 53.7562 49.2605 50.3388 49.2605C43.7282 49.2605 39.4145 46.3474 39.1344 46.1793C38.7422 45.8992 38.6862 45.395 38.9103 45.0589C39.1344 44.6667 39.6386 44.6107 40.0307 44.8348C40.4229 45.1149 49.2744 50.9972 61.3192 44.7788C61.7113 44.5547 62.2155 44.7227 62.3836 45.1149C62.6637 45.5631 62.4956 46.0113 62.1035 46.2353Z" fill="black"/>
<path fill-rule="evenodd" clip-rule="evenodd" d="M67.4118 100V90.702C67.4118 84.858 62.6723 80.1177 56.8274 80.1177H43.5844C37.7403 80.1177 33 84.8571 33 90.702V100H67.4118ZM38.2941 62.9117C38.2941 69.4905 43.6272 74.8235 50.2059 74.8235C56.7846 74.8235 62.1176 69.4905 62.1176 62.9117C62.1176 56.3331 56.7846 51 50.2059 51C43.6272 51 38.2941 56.3331 38.2941 62.9117Z" fill="black"/>
</svg>
