<svg width="68" height="68" viewBox="0 0 68 68" fill="none" xmlns="http://www.w3.org/2000/svg">
<g opacity="0.2" filter="url(#filter0_d_12_46)">
<path d="M63.7045 0.290064C63.5219 0.109165 63.2768 0.00538409 63.0199 0.000203664C62.7629 -0.00497676 62.5138 0.0888398 62.3241 0.262234L38.55 22.0551C38.3682 22.0237 38.1844 22.0052 37.9999 21.9995C36.9669 22.002 35.975 22.4043 35.2321 23.1221C34.4892 23.8398 34.053 24.8174 34.0151 25.8497L29.3814 30.0381C29.2533 30.0282 29.1305 29.9995 28.9999 29.9995C27.6943 30.0021 26.4415 30.5152 25.5092 31.4293C24.5769 32.3433 24.0392 33.5858 24.0109 34.8911L19.4409 39.0219C19.2948 39.0112 19.1488 38.9995 18.9999 38.9995C17.4382 39.0018 15.9389 39.6127 14.8202 40.7024C13.7015 41.7921 13.0515 43.2748 13.0082 44.8359L10.3295 47.2573C10.2257 47.3511 10.1428 47.4657 10.086 47.5935C10.0293 47.7213 9.99993 47.8597 9.99991 47.9995C9.88828 49.2881 9.32565 50.4961 8.41105 51.4107C7.49645 52.3253 6.28852 52.8879 4.99991 52.9995C4.80214 52.9995 4.60882 53.0582 4.44438 53.1681C4.27994 53.2779 4.15178 53.4341 4.0761 53.6168C4.00042 53.7995 3.98063 54.0006 4.01922 54.1946C4.05782 54.3885 4.15306 54.5667 4.29291 54.7065L9.29291 59.7065C9.43275 59.8464 9.61092 59.9416 9.80488 59.9802C9.99885 60.0188 10.1999 59.999 10.3826 59.9233C10.5653 59.8477 10.7215 59.7195 10.8314 59.5551C10.9413 59.3906 10.9999 59.1973 10.9999 58.9995C11.1115 57.7109 11.6742 56.503 12.5888 55.5884C13.5034 54.6738 14.7113 54.1112 15.9999 53.9995C16.1397 53.9994 16.2778 53.9701 16.4056 53.9134C16.5333 53.8568 16.6478 53.774 16.7416 53.6704L19.1631 50.9913C20.7242 50.9481 22.2071 50.2981 23.2969 49.1794C24.3867 48.0607 24.9976 46.5613 24.9999 44.9995C24.9999 44.8507 24.9883 44.7046 24.9776 44.5584L29.1078 39.9886C30.4132 39.9605 31.6558 39.4228 32.57 38.4905C33.4842 37.5582 33.9974 36.3052 33.9999 34.9995C33.9999 34.869 33.9713 34.7465 33.9614 34.6185L38.1498 29.9844C39.1821 29.9465 40.1597 29.5103 40.8775 28.7674C41.5952 28.0245 41.9975 27.0326 41.9999 25.9995C41.9999 25.9095 41.9792 25.8253 41.9734 25.7368L63.7416 1.67043C63.9141 1.4797 64.0065 1.22987 63.9995 0.972816C63.9926 0.715764 63.887 0.471252 63.7045 0.290064ZM15.538 52.0191C14.1591 52.2059 12.8569 52.7643 11.7709 53.6344C10.6849 54.5045 9.85602 55.6535 9.37291 56.9585L7.04091 54.6265C8.34596 54.1435 9.49505 53.3147 10.3652 52.2287C11.2353 51.1427 11.7936 49.8405 11.9804 48.4615L13.4116 47.1678C13.7143 47.9432 14.1745 48.6475 14.7632 49.2362C15.3518 49.8249 16.0561 50.2851 16.8316 50.5879L15.538 52.0191ZM18.9999 48.9995C18.2088 48.9995 17.4354 48.7649 16.7776 48.3254C16.1198 47.8859 15.6071 47.2612 15.3044 46.5303C15.0016 45.7994 14.9224 44.9951 15.0768 44.2192C15.2311 43.4432 15.6121 42.7305 16.1715 42.1711C16.7309 41.6117 17.4436 41.2307 18.2196 41.0764C18.9955 40.9221 19.7997 41.0013 20.5306 41.304C21.2616 41.6068 21.8863 42.1195 22.3258 42.7773C22.7653 43.435 22.9999 44.2084 22.9999 44.9995C22.9988 46.0601 22.577 47.0768 21.8271 47.8267C21.0772 48.5766 20.0604 48.9984 18.9999 48.9995ZM21.7198 39.6583L24.502 37.1435C24.9953 38.1735 25.8258 39.004 26.8558 39.4974L24.3412 42.2795C23.7642 41.1523 22.8471 40.2352 21.7198 39.6583ZM28.9999 37.9995C28.4066 37.9995 27.8266 37.8236 27.3332 37.4939C26.8399 37.1643 26.4553 36.6958 26.2283 36.1476C26.0012 35.5994 25.9418 34.9962 26.0576 34.4143C26.1733 33.8323 26.459 33.2978 26.8786 32.8782C27.2982 32.4587 27.8327 32.1729 28.4146 32.0572C28.9966 31.9414 29.5998 32.0008 30.148 32.2279C30.6961 32.455 31.1647 32.8395 31.4943 33.3328C31.824 33.8262 31.9999 34.4062 31.9999 34.9995C31.999 35.7949 31.6827 36.5575 31.1203 37.1199C30.5579 37.6823 29.7953 37.9987 28.9999 37.9995ZM31.5854 30.7416L34.5769 28.0373C34.9169 28.6066 35.3928 29.0826 35.9621 29.4225L33.2579 32.414C32.8418 31.731 32.2684 31.1576 31.5854 30.7416ZM37.9999 27.9995C37.6043 27.9995 37.2177 27.8822 36.8888 27.6625C36.5599 27.4427 36.3035 27.1304 36.1522 26.7649C36.0008 26.3994 35.9612 25.9973 36.0383 25.6094C36.1155 25.2214 36.306 24.865 36.5857 24.5853C36.8654 24.3056 37.2218 24.1151 37.6097 24.038C37.9977 23.9608 38.3998 24.0004 38.7653 24.1518C39.1307 24.3032 39.4431 24.5595 39.6629 24.8884C39.8826 25.2173 39.9999 25.604 39.9999 25.9995C39.9994 26.5298 39.7885 27.0382 39.4135 27.4132C39.0386 27.7881 38.5302 27.999 37.9999 27.9995ZM41.1938 23.6168C41.0048 23.3666 40.7871 23.1393 40.5451 22.9398L47.9271 16.1724L41.1938 23.6168Z" fill="white"/>
</g>
<defs>
<filter id="filter0_d_12_46" x="0" y="0" width="67.9999" height="67.9995" filterUnits="userSpaceOnUse" color-interpolation-filters="sRGB">
<feFlood flood-opacity="0" result="BackgroundImageFix"/>
<feColorMatrix in="SourceAlpha" type="matrix" values="0 0 0 0 0 0 0 0 0 0 0 0 0 0 0 0 0 0 127 0" result="hardAlpha"/>
<feOffset dy="4"/>
<feGaussianBlur stdDeviation="2"/>
<feComposite in2="hardAlpha" operator="out"/>
<feColorMatrix type="matrix" values="0 0 0 0 0 0 0 0 0 0 0 0 0 0 0 0 0 0 0.25 0"/>
<feBlend mode="normal" in2="BackgroundImageFix" result="effect1_dropShadow_12_46"/>
<feBlend mode="normal" in="SourceGraphic" in2="effect1_dropShadow_12_46" result="shape"/>
</filter>
</defs>
</svg>
