<svg width="103" height="90" viewBox="0 0 103 90" fill="none" xmlns="http://www.w3.org/2000/svg">
<path d="M74.4499 60.2844C69.4079 52.9896 64.3659 44.1929 64.795 39.0437C65.7605 29.2815 67.3696 15.6574 75.2008 16.5156C78.4191 16.8374 80.3501 17.8029 81.4228 18.8757C82.1738 19.6266 83.4611 18.8757 83.2465 17.9102C82.7102 15.8719 81.4228 12.9755 78.4191 8.89898C78.4191 8.89898 67.0478 -4.83241 56.7493 1.81873C46.4507 8.3626 26.0682 34.4308 28.9646 52.9896C29.3938 55.6715 29.7156 58.0316 29.8229 60.1771C12.2295 62.6445 0 68.0083 0 74.3376C0 83.027 23.0644 90 51.4927 90C79.921 90 102.985 83.027 102.985 74.3376C102.985 68.2229 91.3996 62.859 74.4499 60.2844ZM74.879 67.4719C66.5114 71.8703 58.8948 73.2649 52.3509 73.2649C39.6923 73.2649 31.432 67.6865 30.8956 67.3647C30.1447 66.8283 30.0374 65.8628 30.4665 65.2191C30.8956 64.4682 31.8611 64.3609 32.6121 64.79C33.363 65.3264 50.3127 76.5904 73.3771 64.6827C74.128 64.2536 75.0935 64.5755 75.4154 65.3264C75.9517 66.1846 75.6299 67.0428 74.879 67.4719Z" fill="black"/>
</svg>
